<svg width="81" height="60" viewBox="0 0 81 60" fill="none" xmlns="http://www.w3.org/2000/svg">
<path d="M18.8641 0C24.2115 0 28.5739 1.81818 31.9512 5.45455C35.3285 9.09091 37.0172 14.0741 37.0172 20.404C37.0172 29.0236 34.2731 36.9024 28.785 44.0404C23.1561 51.1784 13.7278 56.4983 0.5 60V50.303C4.72163 48.9562 8.31004 47.4747 11.2652 45.8586C14.0796 44.3771 16.1904 42.6263 17.5976 40.6061C19.0048 38.7205 19.7085 36.431 19.7085 33.7374C19.7085 31.7172 18.9345 30.1683 17.3865 29.0909C15.8386 28.1481 14.0796 27.138 12.1095 26.0606C9.99869 24.9832 8.16932 23.5017 6.62138 21.6162C5.07345 19.7306 4.29948 16.9024 4.29948 13.1313C4.29948 8.95623 5.7067 5.72391 8.52112 3.43434C11.1948 1.14478 14.6425 0 18.8641 0ZM62.347 0C67.6944 0 72.0567 1.81818 75.434 5.45455C78.8113 9.09091 80.5 14.0741 80.5 20.404C80.5 29.0236 77.7559 36.9024 72.2678 44.0404C66.639 51.1784 57.2106 56.4983 43.9828 60V50.303C48.2045 48.9562 51.7225 47.4747 54.5369 45.8586C57.3514 44.3771 59.4622 42.6263 60.8694 40.6061C62.2766 38.7205 62.9802 36.431 62.9802 33.7374C62.9802 31.7172 62.2062 30.1683 60.6583 29.0909C59.1104 28.1481 57.3514 27.138 55.3813 26.0606C53.2704 24.9832 51.4411 23.5017 49.8931 21.6162C48.3452 19.7306 47.5712 16.9024 47.5712 13.1313C47.5712 8.95623 48.9785 5.72391 51.7929 3.43434C54.6073 1.14478 58.1253 0 62.347 0Z" fill="#AFD6EE"/>
</svg>
