<svg width="81" height="60" viewBox="0 0 81 60" fill="none" xmlns="http://www.w3.org/2000/svg">
<path d="M62.1359 60C56.7885 60 52.4261 58.1818 49.0488 54.5455C45.6715 50.9091 43.9828 45.9259 43.9828 39.596C43.9828 30.9764 46.7269 23.0976 52.215 15.9596C57.8439 8.82155 67.2722 3.50169 80.5 0V9.69697C76.2784 11.0438 72.69 12.5253 69.7348 14.1414C66.9204 15.6229 64.8096 17.3737 63.4024 19.3939C61.9952 21.2795 61.2915 23.569 61.2915 26.2626C61.2915 28.2828 62.0655 29.8317 63.6135 30.9091C65.1614 31.8519 66.9204 32.862 68.8905 33.9394C71.0013 35.0168 72.8307 36.4983 74.3786 38.3838C75.9266 40.2694 76.7005 43.0976 76.7005 46.8687C76.7005 51.0438 75.2933 54.2761 72.4789 56.5657C69.8052 58.8552 66.3575 60 62.1359 60ZM18.653 60C13.3056 60 8.94327 58.1818 5.56596 54.5455C2.18865 50.9091 0.5 45.9259 0.5 39.596C0.5 30.9764 3.24406 23.0976 8.73219 15.9596C14.361 8.82155 23.7894 3.50169 37.0172 0V9.69697C32.7955 11.0438 29.2775 12.5253 26.4631 14.1414C23.6486 15.6229 21.5378 17.3737 20.1306 19.3939C18.7234 21.2795 18.0198 23.569 18.0198 26.2626C18.0198 28.2828 18.7938 29.8317 20.3417 30.9091C21.8896 31.8519 23.6486 32.862 25.6187 33.9394C27.7296 35.0168 29.5589 36.4983 31.1069 38.3838C32.6548 40.2694 33.4288 43.0976 33.4288 46.8687C33.4288 51.0438 32.0215 54.2761 29.2071 56.5657C26.3927 58.8552 22.8747 60 18.653 60Z" fill="#AFD6EE"/>
</svg>
