<svg width="244" height="148" viewBox="0 0 244 148" fill="none" xmlns="http://www.w3.org/2000/svg">
<circle cx="2" cy="2" r="2" fill="#98B8D1"/>
<circle cx="18" cy="2" r="2" fill="#98B8D1"/>
<circle cx="34" cy="2" r="2" fill="#98B8D1"/>
<circle cx="50" cy="2" r="2" fill="#98B8D1"/>
<circle cx="66" cy="2" r="2" fill="#98B8D1"/>
<circle cx="82" cy="2" r="2" fill="#98B8D1"/>
<circle cx="98" cy="2" r="2" fill="#98B8D1"/>
<circle cx="114" cy="2" r="2" fill="#98B8D1"/>
<circle cx="130" cy="2" r="2" fill="#98B8D1"/>
<circle cx="146" cy="2" r="2" fill="#98B8D1"/>
<circle cx="162" cy="2" r="2" fill="#98B8D1"/>
<circle cx="178" cy="2" r="2" fill="#98B8D1"/>
<circle cx="194" cy="2" r="2" fill="#98B8D1"/>
<circle cx="210" cy="2" r="2" fill="#98B8D1"/>
<circle cx="226" cy="2" r="2" fill="#98B8D1"/>
<circle cx="242" cy="2" r="2" fill="#98B8D1"/>
<circle cx="2" cy="18" r="2" fill="#98B8D1"/>
<circle cx="18" cy="18" r="2" fill="#98B8D1"/>
<circle cx="34" cy="18" r="2" fill="#98B8D1"/>
<circle cx="50" cy="18" r="2" fill="#98B8D1"/>
<circle cx="66" cy="18" r="2" fill="#98B8D1"/>
<circle cx="82" cy="18" r="2" fill="#98B8D1"/>
<circle cx="98" cy="18" r="2" fill="#98B8D1"/>
<circle cx="114" cy="18" r="2" fill="#98B8D1"/>
<circle cx="130" cy="18" r="2" fill="#98B8D1"/>
<circle cx="146" cy="18" r="2" fill="#98B8D1"/>
<circle cx="162" cy="18" r="2" fill="#98B8D1"/>
<circle cx="178" cy="18" r="2" fill="#98B8D1"/>
<circle cx="194" cy="18" r="2" fill="#98B8D1"/>
<circle cx="210" cy="18" r="2" fill="#98B8D1"/>
<circle cx="226" cy="18" r="2" fill="#98B8D1"/>
<circle cx="242" cy="18" r="2" fill="#98B8D1"/>
<circle cx="2" cy="34" r="2" fill="#98B8D1"/>
<circle cx="18" cy="34" r="2" fill="#98B8D1"/>
<circle cx="34" cy="34" r="2" fill="#98B8D1"/>
<circle cx="50" cy="34" r="2" fill="#98B8D1"/>
<circle cx="66" cy="34" r="2" fill="#98B8D1"/>
<circle cx="82" cy="34" r="2" fill="#98B8D1"/>
<circle cx="98" cy="34" r="2" fill="#98B8D1"/>
<circle cx="114" cy="34" r="2" fill="#98B8D1"/>
<circle cx="130" cy="34" r="2" fill="#98B8D1"/>
<circle cx="146" cy="34" r="2" fill="#98B8D1"/>
<circle cx="162" cy="34" r="2" fill="#98B8D1"/>
<circle cx="178" cy="34" r="2" fill="#98B8D1"/>
<circle cx="194" cy="34" r="2" fill="#98B8D1"/>
<circle cx="210" cy="34" r="2" fill="#98B8D1"/>
<circle cx="226" cy="34" r="2" fill="#98B8D1"/>
<circle cx="242" cy="34" r="2" fill="#98B8D1"/>
<circle cx="2" cy="50" r="2" fill="#98B8D1"/>
<circle cx="18" cy="50" r="2" fill="#98B8D1"/>
<circle cx="34" cy="50" r="2" fill="#98B8D1"/>
<circle cx="50" cy="50" r="2" fill="#98B8D1"/>
<circle cx="66" cy="50" r="2" fill="#98B8D1"/>
<circle cx="82" cy="50" r="2" fill="#98B8D1"/>
<circle cx="98" cy="50" r="2" fill="#98B8D1"/>
<circle cx="114" cy="50" r="2" fill="#98B8D1"/>
<circle cx="130" cy="50" r="2" fill="#98B8D1"/>
<circle cx="146" cy="50" r="2" fill="#98B8D1"/>
<circle cx="162" cy="50" r="2" fill="#98B8D1"/>
<circle cx="178" cy="50" r="2" fill="#98B8D1"/>
<circle cx="194" cy="50" r="2" fill="#98B8D1"/>
<circle cx="210" cy="50" r="2" fill="#98B8D1"/>
<circle cx="226" cy="50" r="2" fill="#98B8D1"/>
<circle cx="242" cy="50" r="2" fill="#98B8D1"/>
<circle cx="2" cy="66" r="2" fill="#98B8D1"/>
<circle cx="18" cy="66" r="2" fill="#98B8D1"/>
<circle cx="34" cy="66" r="2" fill="#98B8D1"/>
<circle cx="50" cy="66" r="2" fill="#98B8D1"/>
<circle cx="66" cy="66" r="2" fill="#98B8D1"/>
<circle cx="82" cy="66" r="2" fill="#98B8D1"/>
<circle cx="98" cy="66" r="2" fill="#98B8D1"/>
<circle cx="114" cy="66" r="2" fill="#98B8D1"/>
<circle cx="130" cy="66" r="2" fill="#98B8D1"/>
<circle cx="146" cy="66" r="2" fill="#98B8D1"/>
<circle cx="162" cy="66" r="2" fill="#98B8D1"/>
<circle cx="178" cy="66" r="2" fill="#98B8D1"/>
<circle cx="194" cy="66" r="2" fill="#98B8D1"/>
<circle cx="210" cy="66" r="2" fill="#98B8D1"/>
<circle cx="226" cy="66" r="2" fill="#98B8D1"/>
<circle cx="242" cy="66" r="2" fill="#98B8D1"/>
<circle cx="2" cy="82" r="2" fill="#98B8D1"/>
<circle cx="18" cy="82" r="2" fill="#98B8D1"/>
<circle cx="34" cy="82" r="2" fill="#98B8D1"/>
<circle cx="50" cy="82" r="2" fill="#98B8D1"/>
<circle cx="66" cy="82" r="2" fill="#98B8D1"/>
<circle cx="82" cy="82" r="2" fill="#98B8D1"/>
<circle cx="98" cy="82" r="2" fill="#98B8D1"/>
<circle cx="114" cy="82" r="2" fill="#98B8D1"/>
<circle cx="130" cy="82" r="2" fill="#98B8D1"/>
<circle cx="146" cy="82" r="2" fill="#98B8D1"/>
<circle cx="162" cy="82" r="2" fill="#98B8D1"/>
<circle cx="178" cy="82" r="2" fill="#98B8D1"/>
<circle cx="194" cy="82" r="2" fill="#98B8D1"/>
<circle cx="210" cy="82" r="2" fill="#98B8D1"/>
<circle cx="226" cy="82" r="2" fill="#98B8D1"/>
<circle cx="242" cy="82" r="2" fill="#98B8D1"/>
<circle cx="2" cy="98" r="2" fill="#98B8D1"/>
<circle cx="18" cy="98" r="2" fill="#98B8D1"/>
<circle cx="34" cy="98" r="2" fill="#98B8D1"/>
<circle cx="50" cy="98" r="2" fill="#98B8D1"/>
<circle cx="66" cy="98" r="2" fill="#98B8D1"/>
<circle cx="82" cy="98" r="2" fill="#98B8D1"/>
<circle cx="98" cy="98" r="2" fill="#98B8D1"/>
<circle cx="114" cy="98" r="2" fill="#98B8D1"/>
<circle cx="130" cy="98" r="2" fill="#98B8D1"/>
<circle cx="146" cy="98" r="2" fill="#98B8D1"/>
<circle cx="162" cy="98" r="2" fill="#98B8D1"/>
<circle cx="178" cy="98" r="2" fill="#98B8D1"/>
<circle cx="194" cy="98" r="2" fill="#98B8D1"/>
<circle cx="210" cy="98" r="2" fill="#98B8D1"/>
<circle cx="226" cy="98" r="2" fill="#98B8D1"/>
<circle cx="242" cy="98" r="2" fill="#98B8D1"/>
<circle cx="2" cy="114" r="2" fill="#98B8D1"/>
<circle cx="18" cy="114" r="2" fill="#98B8D1"/>
<circle cx="34" cy="114" r="2" fill="#98B8D1"/>
<circle cx="50" cy="114" r="2" fill="#98B8D1"/>
<circle cx="66" cy="114" r="2" fill="#98B8D1"/>
<circle cx="82" cy="114" r="2" fill="#98B8D1"/>
<circle cx="98" cy="114" r="2" fill="#98B8D1"/>
<circle cx="114" cy="114" r="2" fill="#98B8D1"/>
<circle cx="130" cy="114" r="2" fill="#98B8D1"/>
<circle cx="146" cy="114" r="2" fill="#98B8D1"/>
<circle cx="162" cy="114" r="2" fill="#98B8D1"/>
<circle cx="178" cy="114" r="2" fill="#98B8D1"/>
<circle cx="194" cy="114" r="2" fill="#98B8D1"/>
<circle cx="210" cy="114" r="2" fill="#98B8D1"/>
<circle cx="226" cy="114" r="2" fill="#98B8D1"/>
<circle cx="242" cy="114" r="2" fill="#98B8D1"/>
<circle cx="2" cy="130" r="2" fill="#98B8D1"/>
<circle cx="18" cy="130" r="2" fill="#98B8D1"/>
<circle cx="34" cy="130" r="2" fill="#98B8D1"/>
<circle cx="50" cy="130" r="2" fill="#98B8D1"/>
<circle cx="66" cy="130" r="2" fill="#98B8D1"/>
<circle cx="82" cy="130" r="2" fill="#98B8D1"/>
<circle cx="98" cy="130" r="2" fill="#98B8D1"/>
<circle cx="114" cy="130" r="2" fill="#98B8D1"/>
<circle cx="130" cy="130" r="2" fill="#98B8D1"/>
<circle cx="146" cy="130" r="2" fill="#98B8D1"/>
<circle cx="162" cy="130" r="2" fill="#98B8D1"/>
<circle cx="178" cy="130" r="2" fill="#98B8D1"/>
<circle cx="194" cy="130" r="2" fill="#98B8D1"/>
<circle cx="210" cy="130" r="2" fill="#98B8D1"/>
<circle cx="226" cy="130" r="2" fill="#98B8D1"/>
<circle cx="242" cy="130" r="2" fill="#98B8D1"/>
<circle cx="2" cy="146" r="2" fill="#98B8D1"/>
<circle cx="18" cy="146" r="2" fill="#98B8D1"/>
<circle cx="34" cy="146" r="2" fill="#98B8D1"/>
<circle cx="50" cy="146" r="2" fill="#98B8D1"/>
<circle cx="66" cy="146" r="2" fill="#98B8D1"/>
<circle cx="82" cy="146" r="2" fill="#98B8D1"/>
<circle cx="98" cy="146" r="2" fill="#98B8D1"/>
<circle cx="114" cy="146" r="2" fill="#98B8D1"/>
<circle cx="130" cy="146" r="2" fill="#98B8D1"/>
<circle cx="146" cy="146" r="2" fill="#98B8D1"/>
<circle cx="162" cy="146" r="2" fill="#98B8D1"/>
<circle cx="178" cy="146" r="2" fill="#98B8D1"/>
<circle cx="194" cy="146" r="2" fill="#98B8D1"/>
<circle cx="210" cy="146" r="2" fill="#98B8D1"/>
<circle cx="226" cy="146" r="2" fill="#98B8D1"/>
<circle cx="242" cy="146" r="2" fill="#98B8D1"/>
</svg>
