<svg width="80" height="80" viewBox="0 0 80 80" fill="none" xmlns="http://www.w3.org/2000/svg">
<path fill-rule="evenodd" clip-rule="evenodd" d="M40.4507 79.4164C53.9909 79.7772 71.1733 82.6698 78.1663 71.1524C85.0105 59.8801 70.7415 47.9165 67.2928 35.2076C64.1711 23.7036 69.7547 8.22969 59.4396 2.14168C48.9078 -4.07422 36.2437 4.63303 25.5506 10.5712C15.967 15.8932 7.44916 22.6939 3.87035 33.0009C-0.300622 45.0133 -2.69595 59.2014 5.19053 69.2083C13.1281 79.28 27.5747 79.0734 40.4507 79.4164Z" fill="#8ED5E7"/>
<mask id="mask0_617_1929" style="mask-type:alpha" maskUnits="userSpaceOnUse" x="16" y="16" width="48" height="48">
<rect x="16" y="16" width="48" height="48" fill="#D9D9D9"/>
</mask>
<g mask="url(#mask0_617_1929)">
<path d="M16.0013 45.0805C16.8838 43.3101 17.775 41.5434 18.6363 39.7618C18.7088 39.6139 18.6425 39.3466 18.5525 39.1812C17.5825 37.4021 16.965 35.5099 16.7787 33.5008C16.4362 29.8182 17.2838 26.413 19.4425 23.3856C22.0563 19.7205 25.6538 17.6244 30.1425 17.0997C38.0638 16.1735 45.4763 21.8042 46.6613 29.6081C47.865 37.5389 42.9013 44.7858 35.0363 46.5823C34.8875 46.6159 34.7413 46.6582 34.5663 46.7029C34.5325 48.7866 34.895 50.7907 35.8 52.6581C37.995 57.1873 41.6163 59.8528 46.6425 60.508C49.675 60.9034 52.5413 60.2569 55.18 58.7066C55.6238 58.4455 55.9963 58.4467 56.4475 58.6742C58.1013 59.5097 59.765 60.3265 61.4388 61.121C61.675 61.2328 62.0237 61.2652 62.2625 61.1781C62.6237 61.0464 62.6625 60.6796 62.4362 60.2246C61.6312 58.6009 60.8438 56.9672 59.9987 55.3634C59.6925 54.7841 59.7375 54.3415 60.0587 53.7783C61.9825 50.4004 62.3587 46.831 61.2825 43.1049C61.27 43.0639 61.245 43.0266 61.2225 42.9806C58.3513 44.511 55.6063 44.4054 53.3013 42.0308C51.0425 39.7021 51.0188 37.013 52.66 34.1448C51.5225 33.9384 50.4288 33.742 49.335 33.5406C48.9225 33.4647 48.6963 33.1837 48.7225 32.7971C48.7475 32.4254 49.035 32.1643 49.4425 32.1518C49.5513 32.1481 49.665 32.1456 49.77 32.1692C50.9525 32.4341 52.1375 32.6914 53.3138 32.9836C53.58 33.0495 53.7575 33.0495 53.9863 32.8767C57.73 30.0532 63.0275 32.0946 63.9088 36.6897C63.9225 36.7606 63.9688 36.824 64 36.8911C64 37.4494 64 38.0076 64 38.5658C63.9688 38.6503 63.9238 38.7336 63.9088 38.8207C63.7363 39.8675 63.3138 40.8074 62.6325 41.6192C62.4288 41.8617 62.4275 42.0531 62.515 42.3266C63.8462 46.4431 63.4788 50.4153 61.4413 54.2308C61.2813 54.5305 61.2887 54.7455 61.435 55.0389C62.3012 56.7696 63.1462 58.5114 63.9987 60.2482C63.9987 60.5279 63.9987 60.8064 63.9987 61.0861C63.68 61.9365 63.1625 62.6091 62.1913 62.6763C61.75 62.7061 61.2563 62.5917 60.8513 62.404C59.2838 61.6792 57.7375 60.9046 56.1938 60.1301C55.9388 60.002 55.7575 60.012 55.5125 60.145C46.745 64.8868 35.95 60.1885 33.5825 50.5794C33.3213 49.5214 33.2925 48.4062 33.1588 47.3171C33.1425 47.1816 33.1413 47.0448 33.1325 46.8832C31.5413 47.0112 29.9913 46.913 28.4625 46.5637C27.9925 46.4555 27.5263 46.3262 27.0663 46.1845C26.58 46.034 26.3775 45.6897 26.4987 45.2732C26.6162 44.8728 26.99 44.7286 27.4863 44.8318C28.5963 45.0618 29.705 45.3875 30.8275 45.4572C35.1987 45.727 38.9288 44.2736 41.895 41.056C44.3563 38.3868 45.505 35.1904 45.43 31.5812C45.295 25.1747 40.4538 19.6584 34.1038 18.6314C26.8563 17.4603 20.2225 21.793 18.5025 28.8821C17.6625 32.3421 18.17 35.6541 19.965 38.7411C20.2762 39.2769 20.3013 39.6996 20.0188 40.2417C19.2013 41.8082 18.4325 43.3983 17.6413 44.9785C17.465 45.3304 17.2513 45.6797 17.6263 46.0328C17.9738 46.3598 18.315 46.1783 18.6575 46.0104C20.3063 45.1986 21.955 44.3892 23.605 43.5811C23.7438 43.5127 23.8863 43.4369 24.035 43.4083C24.4 43.3374 24.6813 43.4692 24.8338 43.8173C24.9875 44.1729 24.8625 44.4613 24.5625 44.6652C24.3588 44.8032 24.1213 44.8952 23.8988 45.0046C22.4038 45.7406 20.8813 46.4257 19.4225 47.2263C18.0938 47.9549 16.62 47.7112 16 46.0092C16.0012 45.7021 16.0013 45.3913 16.0013 45.0805ZM57.79 32.9885C55.1538 32.9761 52.9475 35.1618 52.9525 37.7801C52.9575 40.3847 55.1288 42.5455 57.7563 42.5591C60.37 42.5741 62.5612 40.4232 62.5925 37.8124C62.625 35.204 60.4325 33.0022 57.79 32.9885Z" fill="#20262E"/>
<path d="M26.7225 27.5679C26.81 26.8344 27.0063 26.5746 27.4488 26.5683C27.9125 26.5621 28.135 26.8493 28.21 27.5841C28.5287 27.6475 28.8625 27.7034 29.1912 27.7805C30.2625 28.0304 31.19 28.5439 32.0012 29.2811C32.3587 29.6056 32.5687 29.9599 32.5137 30.4585C32.4812 30.7494 32.5075 31.0453 32.5075 31.3474C32.6637 31.4071 32.86 31.4208 32.935 31.5227C33.0875 31.7316 33.3 32.0138 33.2562 32.2152C33.2075 32.4402 32.9175 32.7461 32.7012 32.7747C32.1187 32.853 31.5125 32.848 30.9275 32.7784C30.715 32.7535 30.4612 32.4887 30.36 32.2712C30.2262 31.984 30.3725 31.6918 30.6612 31.5215C30.7787 31.4518 30.92 31.4208 31.055 31.3698C31.245 30.6611 31.0275 30.1415 30.3562 29.7685C29.6937 29.4005 29.0175 29.117 28.1787 29.0511C28.1787 29.2202 28.1787 29.3669 28.1787 29.5124C28.1787 31.0167 28.1887 32.521 28.1712 34.0241C28.1675 34.335 28.2687 34.5413 28.5 34.7365C29.0237 35.1779 29.5325 35.6367 30.04 36.0967C30.5525 36.5616 30.7012 37.0913 30.4912 37.6383C30.2837 38.1779 29.8087 38.4675 29.1112 38.4688C27.9862 38.4713 26.8612 38.4725 25.7375 38.4675C25.0875 38.4651 24.6375 38.1629 24.4287 37.6085C24.2287 37.0801 24.3638 36.5753 24.8388 36.1439C25.3913 35.6404 25.9562 35.1518 26.5062 34.6458C26.6125 34.5476 26.7425 34.4009 26.7438 34.2765C26.7588 32.5571 26.7537 30.8389 26.7537 29.0636C25.965 29.0847 25.3075 29.3594 24.6663 29.7113C24.015 30.0693 23.61 30.5306 23.8962 31.3636C23.9462 31.3835 24.0462 31.417 24.1425 31.4581C24.485 31.6048 24.6662 31.8683 24.5962 32.2326C24.5287 32.5869 24.29 32.802 23.905 32.807C23.4212 32.812 22.9362 32.8058 22.4525 32.8132C22.025 32.8194 21.7062 32.6628 21.6387 32.2189C21.5725 31.7788 21.8175 31.5215 22.235 31.4096C22.2787 31.3984 22.32 31.3785 22.3925 31.3511C22.3925 31.1249 22.42 30.8899 22.3875 30.6636C22.2912 30.0035 22.5887 29.5472 23.075 29.1369C24.0025 28.3549 25.05 27.8514 26.255 27.6723C26.3475 27.6587 26.44 27.6425 26.5312 27.6214C26.59 27.6127 26.6487 27.5903 26.7225 27.5679ZM28.99 37.0614C28.4325 36.5666 27.96 36.1476 27.4612 35.705C26.9612 36.1514 26.485 36.5753 25.94 37.0614C26.99 37.0614 27.9287 37.0614 28.99 37.0614Z" fill="#20262E"/>
<path d="M38.9712 33.6811C38.9712 34.1709 38.98 34.6346 38.9687 35.0984C38.9575 35.5522 38.6512 35.863 38.2525 35.8493C37.87 35.8369 37.5775 35.5348 37.57 35.1083C37.5587 34.4419 37.5612 33.7756 37.5687 33.1092C37.5737 32.6081 37.79 32.3819 38.2925 32.3247C39.5337 32.1817 40.2787 31.5551 40.5012 30.466C40.7387 29.2986 39.9687 28.1162 38.8012 27.8589C37.5825 27.5891 36.38 28.2953 36.0712 29.4614C36.0437 29.5659 36.0325 29.6753 36.0012 29.7785C35.87 30.1999 35.5325 30.415 35.1587 30.3205C34.7662 30.2223 34.5512 29.8941 34.6275 29.4714C34.875 28.0939 35.6587 27.1266 36.9687 26.6281C38.2675 26.1333 39.4987 26.3396 40.5775 27.1987C41.6725 28.0715 42.1475 29.2451 41.92 30.6202C41.6775 32.0835 40.805 33.0731 39.3737 33.5543C39.255 33.5915 39.1362 33.6276 38.9712 33.6811Z" fill="#20262E"/>
<path d="M38.9813 37.7625C38.9863 38.1616 38.6813 38.4712 38.2838 38.4699C37.8913 38.4687 37.5676 38.1454 37.5751 37.7613C37.5813 37.3945 37.8863 37.0924 38.2613 37.08C38.6638 37.0675 38.9763 37.3634 38.9813 37.7625Z" fill="#20262E"/>
<path d="M48.6311 45.9258C51.1599 45.9258 53.6874 45.9258 56.2161 45.9258C56.3561 45.9258 56.5024 45.9096 56.6361 45.942C57.0161 46.0327 57.2449 46.2876 57.2186 46.6742C57.1949 47.0286 56.9849 47.2785 56.5986 47.317C56.4436 47.3332 56.2874 47.3307 56.1311 47.3307C51.0899 47.3319 46.0499 47.3319 41.0086 47.3307C40.2711 47.3307 39.9099 47.0882 39.9261 46.6108C39.9424 46.1459 40.2899 45.9246 41.0011 45.9246C43.5436 45.9258 46.0874 45.9258 48.6311 45.9258Z" fill="#20262E"/>
<path d="M48.6263 48.8052C51.2175 48.8052 53.8075 48.8077 56.3988 48.8027C56.7425 48.8015 57.0575 48.8848 57.1413 49.2267C57.195 49.4505 57.1675 49.7936 57.0263 49.9378C56.8613 50.1069 56.5338 50.1865 56.2763 50.1877C52.9838 50.2039 49.69 50.1977 46.3975 50.1977C44.525 50.1977 42.6513 50.1927 40.7788 50.2014C40.3463 50.2039 40.0475 50.046 39.9438 49.6221C39.8338 49.1708 40.2013 48.8077 40.7613 48.8065C43.18 48.804 45.6 48.8052 48.0188 48.8052C48.2213 48.8052 48.4238 48.8052 48.6263 48.8052Z" fill="#20262E"/>
<path d="M48.5775 53.0746C46.0487 53.0746 43.5212 53.0746 40.9925 53.0746C40.8525 53.0746 40.71 53.0845 40.5712 53.0659C40.1887 53.0124 39.8875 52.6805 39.93 52.3323C39.975 51.9544 40.185 51.7057 40.5925 51.6747C40.7475 51.6635 40.9037 51.6622 41.06 51.6622C46.07 51.6622 51.0787 51.6622 56.0887 51.6622C56.245 51.6622 56.4012 51.6635 56.5562 51.6747C56.965 51.7033 57.1737 51.9532 57.2212 52.3299C57.265 52.6755 56.9612 53.0124 56.5812 53.0659C56.4437 53.0858 56.3012 53.0746 56.16 53.0746C53.6337 53.0746 51.1062 53.0746 48.5775 53.0746Z" fill="#20262E"/>
<path d="M48.5775 54.5118C49.3725 54.5118 50.1675 54.5081 50.9625 54.5118C51.605 54.5156 51.91 54.7456 51.9163 55.2168C51.9225 55.6917 51.6088 55.9428 50.985 55.9453C49.3638 55.949 47.7425 55.9465 46.12 55.9465C45.715 55.9465 45.3663 55.8421 45.255 55.4008C45.13 54.9047 45.4613 54.528 46.0513 54.5168C46.8938 54.5006 47.735 54.5118 48.5775 54.5118Z" fill="#20262E"/>
<path d="M57.2763 38.1641C58.0363 37.4033 58.7488 36.6884 59.4625 35.976C59.7188 35.7211 60.0525 35.5844 60.34 35.8169C60.5338 35.9748 60.6438 36.2868 60.6913 36.5479C60.7163 36.6822 60.5513 36.8823 60.4275 37.0092C59.5875 37.8608 58.7388 38.705 57.8825 39.5404C57.4713 39.942 57.115 39.937 56.7038 39.5379C56.1688 39.0183 55.64 38.4924 55.1163 37.9615C54.74 37.5798 54.7188 37.1683 55.0413 36.8637C55.3413 36.5802 55.76 36.6088 56.1188 36.9632C56.5063 37.3448 56.8738 37.7439 57.2763 38.1641Z" fill="#20262E"/>
</g>
</svg>
