<svg width="80" height="80" viewBox="0 0 80 80" fill="none" xmlns="http://www.w3.org/2000/svg">
<path fill-rule="evenodd" clip-rule="evenodd" d="M39.5493 0.583564C26.0091 0.222847 8.82665 -2.66976 1.83369 8.84759C-5.01047 20.1199 9.25849 32.0835 12.7072 44.7924C15.8289 56.2964 10.2453 71.7703 20.5604 77.8583C31.0922 84.0742 43.7563 75.367 54.4494 69.4288C64.033 64.1068 72.5508 57.3061 76.1296 46.9991C80.3006 34.9867 82.6959 20.7986 74.8095 10.7917C66.8719 0.71997 52.4253 0.926588 39.5493 0.583564Z" fill="#FF8534"/>
<mask id="mask0_617_1095" style="mask-type:alpha" maskUnits="userSpaceOnUse" x="16" y="16" width="48" height="48">
<rect x="16" y="16" width="48" height="48" fill="#D9D9D9"/>
</mask>
<g mask="url(#mask0_617_1095)">
<path d="M47.8485 16.0013C47.9932 16.2754 48.2462 16.5446 48.2613 16.8263C48.313 17.8054 48.2815 18.7895 48.279 19.7711C48.279 19.8637 48.2664 19.9576 48.245 20.0478C48.1581 20.4221 47.9101 20.6124 47.5325 20.5811C47.1549 20.5498 46.922 20.3145 46.9169 19.9376C46.9018 18.8471 46.8905 17.7541 46.9283 16.6648C46.9358 16.4395 47.1599 16.2216 47.2833 16C47.4708 16.0013 47.6596 16.0013 47.8485 16.0013Z" fill="black"/>
<path d="M22.9455 47.7612C23.1142 47.7612 23.2816 47.7612 23.4503 47.7612C28.2086 47.7612 32.9669 47.7612 37.7252 47.7612C38.6076 47.7612 38.7498 47.8977 38.7498 48.7553C38.7511 52.9095 38.7221 57.0649 38.7637 61.2191C38.7826 63.0872 37.4029 64.0136 35.9452 63.9999C30.4492 63.9485 24.9533 63.9798 19.4561 63.9786C17.7692 63.9786 16.7572 62.9782 16.7559 61.308C16.7559 57.7949 16.7219 54.2805 16.7735 50.7673C16.7962 49.2373 16.6099 47.7662 16.1743 46.3026C15.6519 44.546 16.3657 43.3541 18.1469 42.8796C23.4691 41.4598 28.7926 40.0412 34.1161 38.6252C35.7186 38.1983 36.9548 38.9107 37.3891 40.497C37.5942 41.2482 37.8057 41.9981 38.0059 42.7506C38.1695 43.3641 37.9945 43.6596 37.3752 43.8248C32.6887 45.0769 28.0009 46.3264 23.3143 47.5784C23.1846 47.6135 23.0588 47.6598 22.9304 47.7011C22.9354 47.7211 22.9404 47.7412 22.9455 47.7612ZM18.1708 53.6181C18.1595 53.7771 18.1431 53.9136 18.1431 54.0501C18.1419 56.4702 18.1393 58.8891 18.1431 61.3093C18.1444 62.2571 18.522 62.6327 19.4938 62.6327C25.0024 62.6364 30.5122 62.6352 36.0207 62.6327C37.0152 62.6327 37.3815 62.2596 37.3828 61.2705C37.384 58.8816 37.384 56.494 37.3828 54.1052C37.3828 53.9412 37.3677 53.7771 37.3601 53.6181C30.9339 53.6181 24.5668 53.6181 18.1708 53.6181ZM28.0311 49.0883C26.6225 49.0883 25.3234 49.0833 24.0255 49.0983C23.9173 49.0996 23.7788 49.216 23.7083 49.3162C23.0764 50.2089 22.4558 51.1103 21.8352 52.0105C21.7987 52.0644 21.7899 52.137 21.7534 52.2434C23.0739 52.2434 24.3428 52.2484 25.6129 52.2359C25.7325 52.2347 25.8949 52.1558 25.9628 52.0619C26.6388 51.1066 27.2997 50.1425 28.0311 49.0883ZM27.5087 52.2409C28.921 52.2409 30.2164 52.2497 31.5104 52.2271C31.6388 52.2246 31.7936 52.0556 31.8843 51.9279C32.4545 51.1266 33.0097 50.3153 33.5686 49.5065C33.6504 49.3876 33.7247 49.2624 33.8354 49.0883C32.4759 49.0883 31.2058 49.0846 29.9369 49.0958C29.8173 49.0971 29.6537 49.1647 29.5882 49.2561C28.911 50.2076 28.2488 51.1704 27.5087 52.2409ZM27.4747 45.0406C26.5004 44.2167 25.6003 43.4417 24.6789 42.693C24.5807 42.6129 24.3541 42.6442 24.203 42.683C23.1116 42.9622 22.024 43.2564 20.9364 43.5481C20.8282 43.5769 20.7249 43.6283 20.6104 43.6721C20.6532 43.736 20.6645 43.7673 20.6872 43.786C21.2838 44.2931 21.9359 44.7488 22.4646 45.3185C23.1255 46.0297 23.8052 46.1498 24.7015 45.8168C25.5726 45.4925 26.4953 45.3072 27.4747 45.0406ZM33.1104 43.5481C32.3148 42.8696 31.5658 42.2961 30.8974 41.6426C30.409 41.1656 29.947 41.0879 29.3125 41.2958C28.3067 41.625 27.272 41.8654 26.1768 42.1634C27.1335 42.9735 28.0248 43.7334 28.9261 44.4834C29.0092 44.5523 29.164 44.6011 29.2634 44.5761C30.5197 44.2493 31.771 43.9087 33.1104 43.5481ZM37.3639 52.2246C37.3639 51.1592 37.3639 50.14 37.3639 49.0883C36.8012 49.0883 36.2712 49.0771 35.7413 49.0971C35.6255 49.1009 35.4744 49.1872 35.4064 49.2824C34.7569 50.1989 34.1212 51.1241 33.4855 52.0494C33.4578 52.0907 33.4616 52.1533 33.4465 52.2259C34.7632 52.2246 36.0421 52.2246 37.3639 52.2246ZM18.1758 52.2434C18.6668 52.2434 19.1338 52.2246 19.5983 52.2497C19.9004 52.266 20.088 52.1683 20.2541 51.9154C20.6909 51.2506 21.1554 50.6033 21.6074 49.9485C21.7886 49.6868 21.9661 49.4226 22.1688 49.1234C20.7828 49.1234 19.4787 49.1234 18.1758 49.1234C18.1758 50.1701 18.1758 51.1779 18.1758 52.2434ZM31.7974 40.6347C32.7806 41.4685 33.6705 42.226 34.5668 42.976C34.6423 43.0386 34.772 43.0987 34.8563 43.0786C35.4115 42.9434 35.9616 42.7857 36.5394 42.6292C36.3505 41.9356 36.1907 41.2895 35.9968 40.6535C35.8332 40.1164 35.4329 39.7796 34.9193 39.8785C33.9009 40.0738 32.9001 40.3618 31.7974 40.6347ZM17.9467 47.5847C19.2471 47.2378 20.5122 46.8998 21.8516 46.5417C20.9729 45.798 20.1761 45.1207 19.3767 44.4458C18.9034 44.0452 18.5787 44.0302 17.9404 44.377C17.5099 44.6111 17.2972 45.0368 17.4168 45.5677C17.5653 46.23 17.7604 46.8835 17.9467 47.5847Z" fill="black"/>
<path d="M52.8674 39.7922C53.3457 40.4545 53.4275 41.1669 53.0184 41.9231C52.9744 42.0033 53.0222 42.1547 53.0662 42.2562C53.6428 43.5783 52.9492 44.7502 51.5267 44.8704C51.3958 44.8816 51.2473 44.973 51.1529 45.0707C51.0144 45.2159 50.9137 45.3975 50.8042 45.5677C50.3069 46.3452 49.5831 46.7046 48.6692 46.7083C48.0096 46.7108 47.35 46.6946 46.6916 46.7121C45.6443 46.7421 44.8273 46.3578 44.2936 45.4451C44.0809 45.082 43.8505 44.8679 43.3621 44.8253C42.2241 44.7251 41.5821 43.4631 42.068 42.3751C42.1813 42.1209 42.1813 41.9344 42.0655 41.6852C41.815 41.1444 41.8213 40.5759 42.1511 40.0751C42.3362 39.7934 42.2657 39.6232 42.107 39.3815C41.3644 38.2459 40.5562 37.1417 39.9243 35.946C38.0789 32.4516 38.4829 28.7531 41.066 25.9611C43.4817 23.3507 46.5129 22.4279 49.957 23.3995C53.4086 24.3736 55.4983 26.7299 56.2334 30.2305C56.7571 32.7233 55.9628 34.9419 54.6826 37.0315C54.1098 37.963 53.4829 38.8594 52.8674 39.7922ZM47.598 39.225C48.7901 39.225 49.9834 39.2338 51.1755 39.2163C51.353 39.2138 51.6098 39.1436 51.6941 39.0147C52.5187 37.7652 53.3545 36.5194 54.1048 35.2261C54.6637 34.262 54.9834 33.1878 55.0086 32.0635C55.1143 27.3208 51.0874 23.8089 46.3694 24.5151C41.8591 25.1899 39.028 29.9576 40.6191 34.2094C41.2888 35.9998 42.4369 37.5098 43.5358 39.046C43.6189 39.1612 43.8543 39.215 44.0204 39.2175C45.2125 39.2325 46.4059 39.225 47.598 39.225ZM47.6131 40.5584C46.7974 40.5584 45.9804 40.5584 45.1647 40.5584C44.6939 40.5584 44.2231 40.5609 43.7523 40.5584C43.4842 40.5559 43.2752 40.6423 43.2626 40.939C43.2488 41.2683 43.4741 41.3572 43.7586 41.3585C43.8845 41.3585 44.0091 41.3597 44.135 41.3597C46.2385 41.3597 48.3407 41.361 50.4441 41.3597C50.8054 41.3597 51.1717 41.3885 51.5229 41.3297C51.6652 41.3059 51.8767 41.083 51.8729 40.9578C51.8679 40.8226 51.6614 40.6736 51.5141 40.5722C51.4386 40.5209 51.3001 40.5597 51.1906 40.5597C49.9985 40.5584 48.8052 40.5584 47.6131 40.5584ZM47.5627 42.7056C46.3077 42.7056 45.0539 42.7094 43.7989 42.7031C43.4867 42.7019 43.2601 42.7782 43.279 43.1351C43.2979 43.4869 43.5648 43.4844 43.8278 43.4844C46.3215 43.4831 48.814 43.4831 51.3077 43.4844C51.5997 43.4844 51.9132 43.5019 51.8993 43.0837C51.8855 42.6706 51.5632 42.7069 51.2787 42.7069C50.0401 42.7056 48.8014 42.7056 47.5627 42.7056ZM45.6556 44.8841C46.1289 45.554 49.1841 45.5327 49.5 44.8841C48.2261 44.8841 46.9509 44.8841 45.6556 44.8841Z" fill="black"/>
<path d="M40.6733 55.9907C40.6733 54.3205 40.667 52.6503 40.6745 50.9801C40.6821 49.1897 41.8251 48.0567 43.6126 48.0554C47.0026 48.0541 50.3913 48.0529 53.7812 48.0554C55.5209 48.0567 56.6954 49.2273 56.6979 50.9676C56.7017 54.3393 56.7017 57.7097 56.6979 61.0814C56.6954 62.8142 55.5159 63.9811 53.7699 63.9823C50.3648 63.9836 46.9598 63.9848 43.5534 63.9823C41.8553 63.9811 40.6997 62.838 40.672 61.1402C40.672 61.1089 40.672 61.0776 40.672 61.0463C40.6733 59.3611 40.6733 57.6759 40.6733 55.9907ZM55.317 56.0157C55.317 54.3618 55.3195 52.7066 55.3157 51.0527C55.3145 49.9334 54.8021 49.4076 53.6881 49.4063C50.346 49.4013 47.0038 49.4001 43.6617 49.4063C42.564 49.4088 42.0227 49.9622 42.0215 51.059C42.0189 54.3681 42.0189 57.6759 42.0215 60.985C42.0227 62.0768 42.5703 62.6301 43.6667 62.6314C47.0089 62.6364 50.351 62.6364 53.6931 62.6314C54.7858 62.6301 55.312 62.1018 55.3145 61.0263C55.3195 59.3561 55.317 57.6859 55.317 56.0157Z" fill="black"/>
<path d="M23.0323 38.4913C21.5243 38.4913 20.0175 38.4951 18.5094 38.4901C17.0895 38.4851 16.0082 37.4171 16.0057 35.9998C15.9981 33.0012 15.9981 30.0026 16.0057 27.0041C16.0094 25.6268 17.0366 24.5388 18.4226 24.5263C21.5004 24.5 24.5782 24.5 27.6547 24.5263C28.9915 24.5376 30.0313 25.5329 30.0477 26.8676C30.0867 29.9588 30.088 33.0526 30.0464 36.1438C30.0288 37.5122 28.9286 38.4851 27.5552 38.4888C26.0472 38.4951 24.5404 38.4913 23.0323 38.4913ZM17.3778 31.465C17.3778 32.9173 17.3727 34.3697 17.379 35.822C17.3828 36.7372 17.7806 37.1379 18.702 37.1391C21.591 37.1454 24.4812 37.1454 27.3702 37.1391C28.2967 37.1366 28.7159 36.7085 28.7171 35.782C28.7209 32.9236 28.7209 30.0652 28.7171 27.2069C28.7159 26.3004 28.2728 25.856 27.3538 25.8535C24.48 25.8472 21.6061 25.8472 18.7322 25.8535C17.802 25.8547 17.3828 26.2766 17.379 27.2006C17.3727 28.6217 17.3778 30.0427 17.3778 31.465Z" fill="black"/>
<path d="M33.9877 32.4877C33.4716 32.4877 32.9555 32.4965 32.4393 32.4852C31.9862 32.4752 31.7004 32.206 31.6966 31.8129C31.6929 31.4423 31.9572 31.1356 32.3802 31.1268C33.459 31.1043 34.539 31.1043 35.6178 31.1256C36.0534 31.1343 36.3467 31.4761 36.319 31.848C36.2926 32.2173 36.0081 32.4752 35.5838 32.4852C35.0514 32.4965 34.5189 32.4877 33.9877 32.4877Z" fill="black"/>
<path d="M61.149 32.4879C60.648 32.4879 60.1483 32.4941 59.6473 32.4866C59.179 32.4791 58.8957 32.24 58.8743 31.8506C58.8504 31.4312 59.1211 31.1294 59.6045 31.1207C60.6518 31.1019 61.7004 31.1031 62.7477 31.1207C63.2046 31.1282 63.4828 31.4212 63.4828 31.808C63.4828 32.2099 63.1795 32.4779 62.6973 32.4854C62.1825 32.4941 61.6651 32.4879 61.149 32.4879Z" fill="black"/>
<path d="M59.1261 21.0657C58.9738 21.3161 58.8932 21.5264 58.7485 21.6741C58.041 22.4003 57.321 23.1152 56.5946 23.8226C56.261 24.1481 55.8255 24.1581 55.5523 23.8752C55.2905 23.6048 55.3018 23.1841 55.609 22.8723C56.3429 22.1286 57.073 21.3774 57.8434 20.6725C58.0108 20.5198 58.3708 20.4572 58.5949 20.5198C58.7975 20.5774 58.9385 20.8616 59.1261 21.0657Z" fill="black"/>
<path d="M39.8777 23.4845C39.7266 23.661 39.602 23.9239 39.4069 23.9978C39.2118 24.0716 38.8631 24.0403 38.7208 23.9076C37.8938 23.1427 37.097 22.3451 36.3153 21.5351C36.0572 21.2671 36.0824 20.9228 36.3455 20.6486C36.6086 20.3744 36.9547 20.3219 37.2292 20.5835C38.0574 21.3698 38.8606 22.1824 39.6612 22.9962C39.7594 23.1001 39.7858 23.2729 39.8777 23.4845Z" fill="black"/>
<path d="M25.1169 58.2005C25.1169 57.3429 25.108 56.4853 25.1194 55.6289C25.1294 54.8739 25.6216 54.591 26.2762 54.9641C27.783 55.8229 29.2873 56.6868 30.7878 57.5582C31.4751 57.9576 31.4839 58.5235 30.8029 58.9192C29.3037 59.7918 27.7981 60.6545 26.2901 61.5121C25.609 61.899 25.1257 61.6123 25.1181 60.821C25.1106 59.9458 25.1169 59.0732 25.1169 58.2005ZM26.4676 59.8332C27.4255 59.2798 28.3067 58.7714 29.2382 58.2343C28.2828 57.6885 27.3953 57.1826 26.4676 56.653C26.4676 57.736 26.4676 58.7326 26.4676 59.8332Z" fill="black"/>
<path d="M44.6523 32.9598C44.6523 31.8355 44.6486 30.7112 44.6536 29.5869C44.6574 28.7806 45.1559 28.4876 45.857 28.8883C47.8409 30.0226 49.8223 31.1619 51.7999 32.3075C52.5035 32.7144 52.4947 33.2866 51.7835 33.6973C49.8185 34.8328 47.851 35.9647 45.8809 37.0915C45.1546 37.5072 44.6561 37.2154 44.6536 36.3791C44.6498 35.2397 44.6523 34.1004 44.6523 32.9598ZM46.0622 35.4275C47.4771 34.6112 48.8417 33.825 50.2629 33.0049C48.8265 32.1823 47.4658 31.4023 46.0622 30.5973C46.0622 32.2324 46.0622 33.7937 46.0622 35.4275Z" fill="black"/>
<path d="M48.2324 56.6856C48.2324 55.0455 48.2324 53.4542 48.2324 51.8641C48.2324 51.7076 48.2198 51.5498 48.2437 51.3958C48.3192 50.9113 48.7925 50.6396 49.2243 50.875C50.2276 51.4221 51.217 51.9943 52.1989 52.5777C52.5337 52.7768 52.6508 53.0911 52.4532 53.4629C52.2731 53.8022 51.8892 53.9337 51.5279 53.7409C50.9111 53.4128 50.3119 53.0548 49.6158 52.6579C49.6158 52.9183 49.6158 53.0823 49.6158 53.2463C49.6145 55.1043 49.6246 56.9623 49.6083 58.8203C49.5969 60.1061 48.6969 61.0927 47.4381 61.243C46.3165 61.3769 45.21 60.5944 44.9003 59.4488C44.4396 57.7473 46.0332 56.136 47.754 56.5617C47.89 56.5967 48.0234 56.6318 48.2324 56.6856ZM47.1523 59.872C47.7238 59.8983 48.1971 59.4851 48.2299 58.9305C48.2626 58.3683 47.8371 57.8963 47.2744 57.8713C46.6853 57.845 46.2359 58.2394 46.2032 58.8103C46.1692 59.38 46.5859 59.847 47.1523 59.872Z" fill="black"/>
<path d="M26.742 31.5325C26.737 33.5658 25.0628 35.216 23.0172 35.2047C20.988 35.1934 19.3012 33.4957 19.3213 31.485C19.3402 29.4567 21.022 27.809 23.0663 27.8166C25.1093 27.8241 26.7483 29.4792 26.742 31.5325ZM23.0524 33.8275C24.3503 33.8237 25.3875 32.7946 25.3888 31.51C25.3901 30.2217 24.3591 29.1963 23.0575 29.1913C21.732 29.1863 20.6972 30.2129 20.7035 31.5288C20.7098 32.8096 21.7534 33.8313 23.0524 33.8275Z" fill="black"/>
</g>
</svg>
