<svg width="80" height="80" viewBox="0 0 80 80" fill="none" xmlns="http://www.w3.org/2000/svg">
<path fill-rule="evenodd" clip-rule="evenodd" d="M40.4507 0.583564C53.9909 0.222847 71.1733 -2.66976 78.1663 8.84759C85.0105 20.1199 70.7415 32.0835 67.2928 44.7924C64.1711 56.2964 69.7547 71.7703 59.4396 77.8583C48.9078 84.0742 36.2437 75.367 25.5506 69.4288C15.967 64.1068 7.44916 57.3061 3.87035 46.9991C-0.300622 34.9867 -2.69595 20.7986 5.19053 10.7917C13.1281 0.71997 27.5747 0.926588 40.4507 0.583564Z" fill="#C1F2ED"/>
<mask id="mask0_617_747" style="mask-type:alpha" maskUnits="userSpaceOnUse" x="16" y="16" width="48" height="48">
<rect x="16" y="16" width="48" height="48" fill="#D9D9D9"/>
</mask>
<g mask="url(#mask0_617_747)">
<path d="M40.5006 64C40.133 63.7446 40.0046 63.3965 40.0361 62.9546C40.065 62.5514 40.0424 62.1433 40.0424 61.6612C39.8561 61.6612 39.6924 61.6612 39.5275 61.6612C38.3342 61.6612 37.137 61.6099 35.9462 61.6738C34.1977 61.7677 32.3863 60.4568 32.4165 58.1406C32.4467 55.8131 32.4228 53.4856 32.4228 51.1581C32.4228 50.989 32.4228 50.8188 32.4228 50.5383C31.8072 51.0066 31.2659 51.4172 30.7259 51.8304C30.1532 52.2686 29.5804 52.7055 29.0114 53.1488C28.7483 53.3541 28.4777 53.4755 28.1466 53.3078C27.8256 53.1463 27.7199 52.8721 27.7199 52.5353C27.7211 51.7427 27.7199 50.9502 27.7199 50.1039C27.4971 50.1039 27.3297 50.1039 27.161 50.1039C25.2602 50.1039 23.3594 50.1151 21.4586 50.1001C19.2519 50.0826 17.5361 48.7166 17.0842 46.6333C17.025 46.3616 17.0074 46.0749 17.0062 45.7957C16.9999 43.4682 16.9974 41.1407 17.0036 38.8132C17.0049 38.2272 17.3259 37.943 17.8508 38.0332C18.3166 38.1133 18.4324 38.4438 18.4324 38.8607C18.4299 41.1569 18.4274 43.4531 18.4336 45.7506C18.4374 47.1428 19.3047 48.2534 20.6529 48.5764C20.9676 48.6515 21.3062 48.654 21.6335 48.654C23.7861 48.6603 25.9374 48.6565 28.09 48.6578C28.956 48.6578 29.1663 48.8731 29.1675 49.747C29.1675 50.199 29.1675 50.651 29.1675 51.2044C29.3475 51.0754 29.4684 50.9953 29.5842 50.9064C30.4792 50.2203 31.3767 49.5367 32.2642 48.8393C32.3888 48.7417 32.4996 48.5902 32.5499 48.4412C33.0698 46.91 34.1977 46.0711 35.8203 46.0335C36.2559 46.0235 36.6914 46.0323 37.1912 46.0323C37.1912 45.8107 37.1912 45.6429 37.1912 45.4764C37.1912 41.3836 37.1937 37.2907 37.1899 33.1979C37.1886 31.286 35.9613 30.0678 34.0341 30.0653C29.8712 30.0616 25.7083 30.0603 21.5454 30.0653C19.6396 30.0678 18.4337 31.2798 18.4311 33.1741C18.4299 33.596 18.4425 34.0179 18.4261 34.4399C18.4085 34.8881 18.1391 35.1447 17.7174 35.1485C17.2831 35.1523 17.0036 34.9144 17.0125 34.4536C17.0276 33.5973 16.981 32.7208 17.1534 31.892C17.5399 30.0415 19.3136 28.6706 21.2169 28.6656C25.6152 28.6543 30.0147 28.6605 34.413 28.6643C34.6761 28.6643 34.9392 28.7056 35.2753 28.7332C35.2753 28.5454 35.274 28.3663 35.2753 28.1873C35.2866 25.7196 35.2425 23.2493 35.3256 20.7841C35.4099 18.2776 37.7539 16.044 40.2715 16.0189C43.6489 15.9851 47.0262 16.0064 50.4036 16.0089C50.9046 16.0089 51.1614 16.2505 51.169 16.695C51.1753 17.1595 50.9109 17.4074 50.3835 17.4087C47.1634 17.4112 43.9421 17.4037 40.7221 17.4124C38.6954 17.4174 37.1446 18.6782 36.7669 20.6088C36.7191 20.8517 36.7166 21.1059 36.7166 21.3538C36.7128 23.9004 36.7178 26.447 36.709 28.9936C36.7078 29.2665 36.782 29.4481 37.0011 29.6271C38.0736 30.4998 38.6086 31.6366 38.6086 33.0176C38.6086 35.4853 38.6161 37.9543 38.601 40.422C38.5985 40.755 38.6841 40.9729 39.0127 41.0405C39.6068 41.1632 40.2035 41.3573 40.8002 41.366C43.4701 41.4011 46.1413 41.381 48.8125 41.3823C49.7251 41.3823 49.9114 41.5714 49.9127 42.4803C49.9139 43.1827 49.9152 43.8863 49.9177 44.5887C49.9177 44.6188 49.9328 44.6488 49.958 44.7477C50.1091 44.6375 50.2425 44.5436 50.3709 44.446C51.5806 43.527 52.7815 42.593 54.0088 41.6978C54.253 41.5188 54.5992 41.4149 54.9064 41.3961C55.7674 41.3422 56.636 41.3998 57.4945 41.3235C59.3336 41.1582 60.853 39.5281 60.8593 37.6989C60.8756 32.1687 60.8769 26.6385 60.8593 21.1084C60.853 19.1114 59.1297 17.4763 57.0338 17.4174C56.3741 17.3986 55.7145 17.4162 55.0549 17.4112C54.5086 17.4074 54.2518 17.1858 54.2455 16.7226C54.2392 16.2543 54.4998 15.9939 55.031 16.0152C56.1564 16.0602 57.3094 15.9926 58.3971 16.2255C60.5735 16.6913 62.1672 18.6932 62.2754 20.9118C62.3271 21.9723 62.3006 23.0352 62.3019 24.0982C62.3044 28.5191 62.3094 32.9399 62.2994 37.3608C62.2943 40.0239 60.683 42.1235 58.1403 42.6531C57.2327 42.8422 56.2659 42.7457 55.3293 42.8184C55.0537 42.8396 54.7427 42.931 54.5262 43.0926C52.954 44.2607 51.4006 45.4539 49.8447 46.6433C49.5602 46.8599 49.2808 47.0477 48.9031 46.8686C48.5078 46.6808 48.4726 46.3378 48.4751 45.9609C48.4827 44.933 48.4776 43.9039 48.4776 42.8572C45.1796 42.6243 41.8941 43.1163 38.6312 42.5317C38.6312 43.6397 38.6312 44.8028 38.6312 46.011C38.8075 46.0185 38.9736 46.0335 39.1398 46.0335C40.994 46.0348 42.847 46.026 44.7012 46.0373C46.4031 46.0473 47.6884 46.9688 48.0673 48.4875C48.1869 48.9645 48.1856 49.4766 48.1969 49.9724C48.2158 50.8313 48.207 51.6902 48.2007 52.5503C48.1969 53.1463 47.9489 53.4355 47.4681 53.433C46.991 53.4292 46.7518 53.1425 46.7493 52.5378C46.7443 51.4911 46.7556 50.4444 46.7455 49.3977C46.7342 48.2271 46.0066 47.4871 44.8397 47.4834C41.8236 47.4734 38.8075 47.4746 35.7914 47.4834C34.6182 47.4871 33.883 48.2221 33.8805 49.3915C33.8729 52.375 33.8717 55.3586 33.8805 58.3434C33.8843 59.4852 34.6597 60.2477 35.8065 60.2527C37.3611 60.2602 38.917 60.254 40.4729 60.2552C41.2659 60.2552 41.4736 60.4605 41.4812 61.2493C41.4824 61.4146 41.4812 61.5811 41.4812 61.849C42.0388 61.4258 42.5298 61.0941 42.9703 60.7059C43.3757 60.3491 43.81 60.2076 44.345 60.2452C44.6836 60.2702 45.0398 60.249 45.3696 60.1713C46.1904 59.9773 46.7103 59.3212 46.7417 58.4861C46.7568 58.0805 46.738 57.6736 46.7531 57.2679C46.7732 56.7421 47.0275 56.4854 47.4907 56.4917C47.9326 56.4979 48.1994 56.7521 48.1944 57.2504C48.1881 57.9039 48.2133 58.575 48.0736 59.206C47.7538 60.6534 46.4573 61.6662 44.9643 61.6425C44.3059 61.6324 43.8024 61.8227 43.3127 62.2384C42.5889 62.8544 41.8173 63.4153 41.0658 64C40.877 64 40.6881 64 40.5006 64Z" fill="black"/>
<path d="M45.9889 36.8287C45.5534 36.9539 45.2563 37.1054 44.9554 37.1129C43.825 37.1417 42.6946 37.1292 41.5629 37.1229C40.8807 37.1192 40.6503 36.9001 40.649 36.2265C40.6427 33.5246 40.6427 30.8228 40.649 28.1209C40.6503 27.4286 40.892 27.1969 41.5919 27.1944C42.6594 27.1894 43.7281 27.1794 44.7955 27.2007C45.1241 27.2069 45.4501 27.3121 45.8995 27.3935C46.5843 26.5834 47.3824 25.7045 48.1012 24.7643C48.5531 24.1733 48.6991 23.4434 48.7281 22.6909C48.7658 21.7244 49.4242 21.1146 50.3217 21.1672C50.8731 21.1998 51.2608 21.494 51.5113 21.9673C52.2817 23.4246 52.4025 24.9333 51.8461 26.4895C51.7845 26.6623 51.724 26.8351 51.641 27.0717C52.7714 27.0717 53.8514 27.0705 54.9302 27.0717C56.189 27.073 56.9229 27.7866 56.9267 29.0387C56.933 31.1934 56.9305 33.3493 56.9229 35.5041C56.9191 36.6684 56.15 37.446 54.9768 37.4522C52.7777 37.4647 50.5798 37.4647 48.3806 37.451C47.4907 37.4447 46.6473 37.2118 45.9889 36.8287ZM50.2235 22.6133C50.1858 22.7936 50.1556 22.8812 50.1505 22.9714C50.0574 24.3899 49.4443 25.5656 48.4889 26.5985C47.6807 27.4711 46.8978 28.3676 46.1249 29.2703C45.9876 29.4305 45.8857 29.6759 45.8832 29.8838C45.863 31.4763 45.8618 33.0689 45.8857 34.6615C45.8882 34.8543 46.0267 35.0959 46.179 35.2261C46.8499 35.7983 47.6518 36.0187 48.5317 36.0161C50.6364 36.0086 52.7399 36.0161 54.8446 36.0124C55.4186 36.0111 55.4992 35.9273 55.4992 35.3613C55.5005 33.2842 55.5005 31.2071 55.4992 29.1313C55.4992 28.5691 55.406 28.4752 54.8459 28.4727C53.4637 28.469 52.0815 28.474 50.7006 28.4665C49.9743 28.4627 49.6747 28.017 49.9403 27.3509C50.1367 26.8589 50.3683 26.3794 50.5382 25.8786C50.9083 24.7843 50.8177 23.7201 50.2235 22.6133ZM44.4242 35.6831C44.4242 33.3155 44.4242 30.988 44.4242 28.6793C43.6286 28.6793 42.8696 28.6793 42.1193 28.6793C42.1193 31.0344 42.1193 33.3493 42.1193 35.6831C42.8973 35.6831 43.645 35.6831 44.4242 35.6831Z" fill="black"/>
<path d="M28.2674 41.8781C27.6758 41.8781 27.1483 41.8781 26.5844 41.8781C26.4459 42.6831 26.3112 43.4769 26.1715 44.2707C26.0809 44.7878 25.7989 45.0307 25.3608 44.9818C24.9316 44.9343 24.6987 44.6163 24.7679 44.0904C24.8636 43.3655 24.997 42.6456 25.1254 41.8556C24.6068 41.8556 24.1096 41.8556 23.6123 41.8556C23.4235 41.8556 23.2334 41.8668 23.0471 41.8455C22.6368 41.7992 22.3825 41.5663 22.3435 41.1532C22.3082 40.7838 22.6204 40.4445 23.0497 40.4245C23.6765 40.3944 24.3059 40.3982 24.9341 40.4157C25.2538 40.4245 25.4238 40.3619 25.4426 39.9951C25.464 39.5957 25.566 39.2013 25.6466 38.7193C25.1758 38.7193 24.7604 38.7193 24.345 38.7193C23.9686 38.7193 23.5909 38.7255 23.2146 38.7167C22.667 38.7042 22.3397 38.435 22.3397 38.0094C22.3397 37.5849 22.6821 37.2995 23.2133 37.297C23.9359 37.2919 24.6584 37.2957 25.381 37.2957C25.5358 37.2957 25.6919 37.2957 25.8858 37.2957C26.0217 36.4731 26.1501 35.6768 26.2835 34.8818C26.3716 34.3622 26.7128 34.078 27.1408 34.1594C27.5688 34.2395 27.774 34.5751 27.6984 35.0796C27.6431 35.449 27.5763 35.8183 27.5184 36.1877C27.4643 36.5382 27.4152 36.8913 27.3598 37.2719C27.9301 37.2719 28.4575 37.2719 29.0265 37.2719C29.1461 36.5583 29.2644 35.8534 29.384 35.1497C29.4054 35.027 29.4255 34.9031 29.4545 34.7829C29.5703 34.3134 29.885 34.0818 30.2891 34.1632C30.712 34.2495 30.9336 34.6126 30.8505 35.0922C30.7422 35.7219 30.6302 36.3504 30.5245 36.9814C30.5094 37.0691 30.5219 37.1617 30.5219 37.297C31.1451 37.297 31.7543 37.2945 32.3636 37.2982C32.93 37.302 33.2347 37.5411 33.2485 37.9831C33.2636 38.4538 32.9678 38.7117 32.3711 38.718C31.6675 38.7268 30.9625 38.7205 30.245 38.7205C30.1506 39.2877 30.0625 39.8098 29.9618 40.412C30.6315 40.412 31.2672 40.4107 31.9029 40.4132C32.1383 40.4145 32.3774 40.4007 32.6078 40.4345C33.0182 40.4946 33.2611 40.7325 33.2448 41.1644C33.2296 41.6014 32.9502 41.8167 32.5486 41.8455C32.0955 41.8781 31.6385 41.8568 31.1828 41.8581C30.994 41.8581 30.8064 41.8581 30.6176 41.8581C29.6899 41.8581 29.6949 41.8593 29.5577 42.7896C29.4834 43.2979 29.4003 43.8062 29.2996 44.3108C29.1926 44.8404 28.8628 45.0745 28.4134 44.9731C28.0119 44.8829 27.8155 44.5111 27.9024 44.0115C28.0232 43.3192 28.1403 42.628 28.2674 41.8781ZM26.821 40.407C27.3397 40.407 27.8218 40.417 28.3014 40.397C28.3832 40.3932 28.5129 40.2755 28.5305 40.1929C28.6262 39.7246 28.6942 39.2514 28.7772 38.7455C28.1982 38.7455 27.6733 38.7455 27.1068 38.7455C27.0136 39.2852 26.923 39.8148 26.821 40.407Z" fill="black"/>
<path d="M40.2953 51.0566C41.5465 50.224 42.7953 50.5959 43.4977 51.2119C44.3826 51.9869 44.6394 53.3641 44.1183 54.576C43.7998 55.3172 43.2686 55.8919 42.6228 56.3476C42.0236 56.7708 41.3942 57.1589 40.7497 57.5083C40.5445 57.6197 40.1933 57.6648 39.9982 57.5658C38.9207 57.0212 37.8658 56.4278 37.0715 55.4825C36.364 54.6399 36.1072 53.6721 36.32 52.5978C36.6586 50.8738 38.679 49.8897 40.2953 51.0566ZM42.9526 53.4404C42.9564 52.6842 42.6656 52.2348 42.1508 52.0557C41.6422 51.8792 41.3703 51.9944 40.9058 52.5866C40.5307 53.0648 40.0322 53.0273 39.6458 52.4626C39.3864 52.0845 39.0491 51.9205 38.6035 51.9956C38.1591 52.0707 37.8834 52.3512 37.755 52.7719C37.5196 53.5419 37.7525 54.2205 38.319 54.725C38.8728 55.2196 39.5199 55.6114 40.1405 56.0284C40.2261 56.086 40.4212 56.0797 40.5118 56.0209C41.0745 55.6553 41.6447 55.2959 42.1659 54.8778C42.6568 54.4846 42.9363 53.9463 42.9526 53.4404Z" fill="black"/>
</g>
</svg>
