<svg width="80" height="80" viewBox="0 0 80 80" fill="none" xmlns="http://www.w3.org/2000/svg">
<path fill-rule="evenodd" clip-rule="evenodd" d="M39.5493 79.4164C26.0091 79.7772 8.82665 82.6698 1.83369 71.1524C-5.01047 59.8801 9.25849 47.9165 12.7072 35.2076C15.8289 23.7036 10.2453 8.22969 20.5604 2.14168C31.0922 -4.07422 43.7563 4.63303 54.4494 10.5712C64.033 15.8932 72.5508 22.6939 76.1296 33.0009C80.3006 45.0133 82.6959 59.2014 74.8095 69.2083C66.8719 79.28 52.4253 79.0734 39.5493 79.4164Z" fill="#FFDF73"/>
<mask id="mask0_617_830" style="mask-type:alpha" maskUnits="userSpaceOnUse" x="16" y="16" width="48" height="48">
<rect x="16" y="16" width="48" height="48" fill="#D9D9D9"/>
</mask>
<g mask="url(#mask0_617_830)">
<path d="M53.999 39.2296C54.4446 39.2296 54.925 39.2296 55.4791 39.2296C55.4791 39.7153 55.4817 40.1753 55.4778 40.6352C55.4727 41.3432 55.7323 41.8975 56.413 42.1804C57.0885 42.4621 57.671 42.2799 58.1644 41.7618C58.4847 41.4259 58.8076 41.09 59.1047 40.7812C60.2322 41.9104 61.3107 42.9892 62.4732 44.152C62.1503 44.444 61.7873 44.7592 61.4386 45.0913C60.9362 45.5706 60.7605 46.1442 61.0369 46.8019C61.3108 47.4543 61.8338 47.745 62.5274 47.7489C62.9924 47.7515 63.4587 47.7489 63.9559 47.7489C63.9559 49.298 63.9559 50.8186 63.9559 52.3897C63.4677 52.3897 62.9885 52.3845 62.5093 52.391C61.8403 52.4 61.3224 52.6713 61.0511 53.3083C60.7721 53.962 60.9207 54.537 61.4167 55.0279C61.7589 55.3677 62.109 55.6985 62.4177 55.9982C61.3017 57.1145 60.2232 58.1933 59.0349 59.3819C58.7779 59.086 58.4808 58.7075 58.1463 58.3664C57.5883 57.7979 57.0329 57.6791 56.3988 57.962C55.7491 58.2514 55.4778 58.7798 55.4778 59.471C55.4778 59.9219 55.4778 60.3741 55.4778 60.8638C53.9434 60.8638 52.4232 60.8638 50.8397 60.8638C50.8397 60.4129 50.8423 59.9517 50.8384 59.4904C50.8319 58.723 50.5077 58.1855 49.8955 57.9478C49.2136 57.6816 48.6349 57.8599 48.1467 58.3832C47.8302 58.723 47.519 59.0692 47.1121 59.515C46.7853 59.1222 46.5322 58.8173 46.2222 58.4439C46.155 59.6222 45.6358 60.3612 44.6503 60.7824C44.5263 60.8354 44.4191 60.9865 44.3571 61.117C43.4801 62.962 42.0413 63.9943 39.985 63.9878C37.9482 63.9813 36.5261 62.9503 35.6543 61.1274C35.591 60.9956 35.4902 60.8483 35.3675 60.785C33.7285 59.94 33.3733 58.6351 34.2878 57.1623C34.0734 56.4426 33.8848 55.8147 33.6962 55.1817C33.6342 55.2398 33.5205 55.3419 33.4108 55.4517C31.9745 56.8884 30.5421 58.3289 29.0981 59.7566C28.9224 59.931 28.6925 60.0744 28.4626 60.1648C25.2866 61.3974 22.1079 62.6248 18.9228 63.8379C17.6545 64.3211 16.3719 63.6881 16.0929 62.4142C16.0051 62.0137 16.0387 61.5279 16.182 61.1442C17.4 57.8922 18.6542 54.652 19.9096 51.4142C19.9871 51.214 20.1486 51.0357 20.3035 50.8794C22.3843 48.7876 24.4664 46.6972 26.564 44.6223C26.8249 44.3652 26.852 44.1675 26.7254 43.8329C25.9763 41.8523 25.9479 39.8071 26.2591 37.6844C26.0731 37.6844 25.9014 37.6844 25.7283 37.6844C24.0518 37.6844 22.3753 37.6882 20.7001 37.6831C18.3545 37.6766 16.514 36.112 16.071 33.7593C15.6809 31.6831 16.9324 29.5242 19.0055 28.696C19.0946 28.6612 19.1811 28.6224 19.2961 28.5746C19.0081 27.178 19.0145 25.7865 19.5002 24.4377C20.6135 21.3421 22.8235 19.4984 26.0757 19.1586C29.2117 18.8318 31.6852 20.1367 33.4121 22.7904C33.6071 23.0888 33.744 23.187 34.1237 23.1095C36.6282 22.5927 39.0822 23.6185 40.5068 25.7477C40.6631 25.9816 40.8297 26.0875 41.1113 26.134C42.1239 26.302 43.1275 26.5268 44.1414 26.6896C44.3106 26.7167 44.5573 26.5914 44.6904 26.4583C47.5719 23.594 50.4341 20.7103 53.317 17.8486C55.5825 15.5992 59.0892 15.3822 61.5574 17.3098C64.5501 19.6483 64.842 23.9674 62.1606 26.6805C59.3152 29.5578 56.4465 32.4118 53.5766 35.2645C53.3015 35.5384 53.255 35.7658 53.3493 36.1443C53.6037 37.1378 53.7794 38.152 53.999 39.2296ZM23.7857 33.0216C23.7418 32.7671 23.7121 32.5604 23.6695 32.3549C23.3324 30.7374 21.714 29.6986 20.0465 30.0255C18.4268 30.3433 17.3316 31.9415 17.6338 33.5474C17.9347 35.1482 19.1618 36.1366 20.8719 36.1378C27.6877 36.1404 34.5047 36.1391 41.3206 36.1391C41.4329 36.1391 41.5466 36.1417 41.659 36.134C42.7878 36.05 43.6299 35.2851 43.8418 34.1534C44.0213 33.1934 43.4388 32.1275 42.5037 31.7051C41.544 31.271 40.4009 31.5151 39.7706 32.3769C39.4774 32.7761 39.3354 33.2852 39.1054 33.7852C38.7025 33.7852 38.2104 33.7852 37.6873 33.7852C37.7208 32.497 38.2065 31.4325 39.2488 30.7567C39.9114 30.3278 40.0122 29.78 40.0057 29.1301C39.9825 26.7594 38.2439 24.8395 35.7964 24.5604C33.6252 24.3123 31.4837 25.7451 30.8921 27.9997C30.7991 28.355 30.8211 28.5268 31.206 28.687C32.3671 29.1728 33.1098 30.3536 33.0078 31.4673C32.517 31.4673 32.0236 31.4673 31.5341 31.4673C31.2667 30.4544 30.75 29.9557 29.9699 29.9454C29.1872 29.935 28.677 30.4157 28.3645 31.4622C27.8711 31.4622 27.3777 31.4622 26.8856 31.4622C26.8326 30.2438 27.6244 29.0836 28.8436 28.6108C29.0955 28.5126 29.2376 28.3989 29.2776 28.1185C29.4262 27.0914 29.8253 26.156 30.4982 25.3756C30.9968 24.7955 31.5909 24.2981 32.1553 23.7503C31.011 21.4454 27.6954 19.8253 24.54 21.1199C21.3304 22.4377 20.1085 25.9325 20.9119 28.3692C23.6126 28.7968 25.6185 30.9389 25.2478 33.0203C24.7673 33.0216 24.2894 33.0216 23.7857 33.0216ZM40.7794 53.1726C41.9341 53.1726 43.0281 53.1817 44.1208 53.1584C44.2396 53.1558 44.3842 52.9853 44.4682 52.8587C45.0649 51.9646 45.5635 50.9892 46.2558 50.1778C47.2904 48.9672 48.4502 47.8639 49.57 46.7282C51.8562 44.4065 52.7681 41.612 52.2669 38.4195C51.4907 33.479 48.7021 30.1095 44.0368 28.3291C43.2128 28.0152 42.3216 27.8795 41.4562 27.6612C41.5027 28.4984 41.5427 29.2128 41.5828 29.9208C41.6331 29.9312 41.6641 29.9415 41.6964 29.9428C43.6997 30.072 45.3039 31.5927 45.4175 33.4699C45.5428 35.5565 44.2396 37.3148 42.1821 37.6146C41.0919 37.7735 39.9644 37.6688 38.8536 37.6805C38.4739 37.6844 38.0941 37.6818 37.7312 37.6818C37.7066 37.7787 37.6924 37.8084 37.6924 37.8394C37.6899 38.4518 37.686 39.0642 37.6873 39.6766C37.6886 40.5228 37.9404 40.7799 38.7735 40.7812C40.6915 40.7825 42.6083 40.7786 44.5263 40.7851C44.7653 40.7864 45.012 40.8006 45.2406 40.8613C46.4004 41.1701 47.1082 42.2386 46.9597 43.4259C46.8202 44.5499 45.8257 45.4169 44.6477 45.4194C42.1821 45.4246 39.7164 45.4207 37.252 45.422C36.5287 45.422 36.1361 45.7037 36.1451 46.2101C36.1541 46.7011 36.5377 46.9724 37.2275 46.9737C37.6136 46.975 38.0011 46.9724 38.3873 46.9737C39.8003 46.9802 40.7755 47.9595 40.7794 49.3807C40.782 50.6235 40.7794 51.8626 40.7794 53.1726ZM39.2359 53.1726C39.2359 52.9594 39.2359 52.816 39.2359 52.6739C39.2346 51.5615 39.2475 50.4491 39.2282 49.3367C39.2191 48.8354 38.9027 48.5435 38.3912 48.5254C37.9081 48.5099 37.4238 48.5241 36.9407 48.5202C35.613 48.5099 34.5977 47.5099 34.5939 46.2127C34.59 44.8884 35.6065 43.8846 36.964 43.882C38.6237 43.8781 40.2834 43.8807 41.9444 43.8807C42.8149 43.8807 43.6855 43.8936 44.5547 43.8755C45.2225 43.8626 45.6022 43.2993 45.3258 42.767C45.1372 42.4027 44.8079 42.3251 44.4295 42.3264C42.4959 42.3316 40.5611 42.329 38.6276 42.3277C37.0841 42.3264 36.1425 41.3755 36.1412 39.8213C36.1399 39.1185 36.1412 38.4156 36.1412 37.6844C33.4353 37.6844 30.7953 37.6805 28.1539 37.6973C28.0429 37.6986 27.853 37.8717 27.8323 37.9893C27.2821 41.0823 27.8672 43.8884 30.0306 46.2528C30.9218 47.2269 31.8725 48.1468 32.7985 49.09C33.9106 50.223 34.9026 51.4414 35.5639 52.9039C35.6155 53.0189 35.7783 53.1597 35.8919 53.161C36.9859 53.1804 38.0799 53.1726 39.2359 53.1726ZM53.0638 44.6262C56.4052 44.6636 58.3865 47.205 58.5583 49.6132C58.7559 52.3884 56.9244 54.8419 54.3025 55.3755C52.976 55.6455 51.7038 55.4736 50.5219 54.8018C48.9901 53.9323 48.1092 52.5912 47.7734 50.798C46.8693 51.7502 46.1938 52.7514 45.7508 53.9026C45.7159 53.9943 45.7766 54.1494 45.8373 54.2476C46.1563 54.7644 46.2571 55.316 46.1667 55.9155C46.1486 56.0344 46.1899 56.1959 46.2661 56.2863C46.5219 56.5951 46.8034 56.8819 47.0902 57.1933C48.1338 56.2721 49.2562 55.9917 50.4948 56.5072C51.727 57.0214 52.3302 58.0085 52.4129 59.3328C52.9269 59.3328 53.4177 59.3328 53.9124 59.3328C53.9951 57.9814 54.6099 57.0034 55.8485 56.4969C57.0846 55.9917 58.2057 56.2928 59.1357 57.1041C59.5128 56.7372 59.8551 56.4039 60.209 56.0602C59.354 55.077 59.0801 53.9556 59.6058 52.7166C60.1276 51.4866 61.1196 50.8974 62.4474 50.8148C62.4474 50.5396 62.4474 50.2993 62.4474 50.059C62.4474 49.8096 62.4474 49.5602 62.4474 49.3186C59.6007 49.1016 58.5674 46.5758 60.1999 44.0551C59.8641 43.705 59.5309 43.3587 59.1744 42.9879C58.2845 43.7993 57.2551 44.0977 56.0952 43.7373C54.9328 43.3755 54.247 42.5345 53.955 41.3975C53.6528 42.4879 53.357 43.5629 53.0638 44.6262ZM60.1548 26.4415C61.9281 24.9816 62.9446 23.1999 62.2045 20.8563C61.5897 18.9093 60.1664 17.7956 58.1347 17.5915C56.143 17.3912 54.7223 18.4325 53.5689 19.8498C55.7762 22.0604 57.959 24.2439 60.1548 26.4415ZM27.6915 45.8936C25.7825 47.8044 23.8335 49.7553 21.9374 51.652C22.786 52.4982 23.6837 53.3923 24.5129 54.2191C26.3495 52.3832 28.2211 50.5111 30.0694 48.6623C29.2828 47.7463 28.4574 46.7851 27.6915 45.8936ZM26.9295 59.0847C24.9249 57.0796 22.9475 55.1016 20.9687 53.1209C20.9713 53.1184 20.9364 53.1352 20.9261 53.161C20.3113 54.7476 19.6926 56.3328 19.0985 57.9271C19.0559 58.0408 19.1424 58.2592 19.2393 58.3599C20.0349 59.1803 20.8577 59.9749 21.6507 60.7979C21.847 61.0007 22.0059 60.9982 22.2384 60.9038C22.9526 60.6144 23.6733 60.3418 24.3915 60.0641C25.2427 59.7346 26.0925 59.4077 26.9295 59.0847ZM31.4643 49.8393C29.492 51.8173 27.6218 53.6933 25.8045 55.5176C26.6518 56.3651 27.5482 57.2617 28.4575 58.1713C28.4549 58.1726 28.5001 58.1532 28.5324 58.1209C30.2089 56.4465 31.8789 54.7656 33.5645 53.1003C33.7827 52.8845 33.7479 52.7204 33.5929 52.5241C32.8747 51.6171 32.1553 50.7114 31.4643 49.8393ZM57.0265 50.0654C57.0226 47.9698 55.2802 46.2088 53.1839 46.2063C52.4813 46.2063 51.8523 46.3406 51.386 47.0047C50.965 47.6055 50.4264 48.1378 49.8774 48.63C49.4344 49.028 49.2975 49.4918 49.2923 50.0396C49.273 52.1507 51.0334 53.931 53.1465 53.9401C55.2557 53.9491 57.0304 52.1765 57.0265 50.0654ZM52.5834 33.8924C53.9008 32.5836 55.2544 31.2399 56.5227 29.9816C55.6483 29.103 54.7468 28.1973 53.9111 27.3588C52.7887 28.4803 51.6198 29.6482 50.4935 30.7735C51.1871 31.8058 51.9001 32.8717 52.5834 33.8924ZM49.2471 29.5177C50.3992 28.3679 51.5669 27.2025 52.6764 26.0966C51.8019 25.2232 50.8991 24.3188 50.0234 23.4428C48.7266 24.74 47.3885 26.0811 46.0775 27.3924C47.1199 28.0914 48.1958 28.8123 49.2471 29.5177ZM58.9213 27.6431C56.7294 25.4493 54.5453 23.2633 52.387 21.1031C52.0306 21.4726 51.6482 21.8705 51.3073 22.2245C53.4604 24.3795 55.6432 26.5643 57.8079 28.7309C58.1657 28.3795 58.5532 28.0022 58.9213 27.6431ZM39.9863 56.2656C41.2082 56.2656 42.43 56.2682 43.6532 56.2643C44.259 56.263 44.6296 55.9749 44.6464 55.5111C44.6632 55.0305 44.2757 54.7153 43.6493 54.7153C41.2211 54.7127 38.7929 54.7127 36.3647 54.7153C35.7589 54.7153 35.3882 55.0034 35.3727 55.4685C35.3559 55.9491 35.7434 56.2631 36.3698 56.2656C37.5736 56.2669 38.78 56.2656 39.9863 56.2656ZM40.0186 59.3612C41.225 59.3612 42.43 59.3638 43.6364 59.3599C44.2706 59.3586 44.6529 59.055 44.6451 58.5744C44.6374 58.108 44.2641 57.8121 43.6635 57.8108C41.2198 57.8083 38.7748 57.8083 36.3311 57.8108C35.7369 57.8121 35.3637 58.1274 35.3714 58.5951C35.3792 59.0615 35.7524 59.3573 36.353 59.3586C37.5736 59.3638 38.7968 59.3612 40.0186 59.3612ZM37.3037 60.9284C38.0592 62.0098 39.0176 62.5162 40.2304 62.4323C41.2689 62.3612 42.0955 61.8728 42.6961 60.9284C40.8762 60.9284 39.1352 60.9284 37.3037 60.9284ZM20.2183 61.67C19.5932 61.0447 18.9809 60.4336 18.3558 59.8083C18.1207 60.4258 17.8573 61.0602 17.6441 61.7126C17.5912 61.8754 17.6441 62.1519 17.7578 62.2656C17.8728 62.3806 18.1491 62.4348 18.3119 62.3819C18.9641 62.17 19.5996 61.9064 20.2183 61.67Z" fill="black"/>
</g>
</svg>
