<svg width="342" height="451" viewBox="0 0 342 451" fill="none" xmlns="http://www.w3.org/2000/svg">
<path fill-rule="evenodd" clip-rule="evenodd" d="M20.6389 50.2261C22.8789 53.7694 26.0128 55.1577 30.1418 53.8502C22.015 51.7465 17.7939 44.7859 19.5847 36.4217C20.5438 31.9349 22.5059 30.7949 26.6298 32.7495C30.9568 34.7962 33.798 38.4314 36.6856 42.1258L36.6858 42.1261C36.8879 42.3846 37.0902 42.6434 37.2932 42.902C40.2609 46.6835 40.2157 49.5649 36.4667 52.4446C37.2811 53.0302 37.7956 52.5085 38.3214 51.9753C38.8722 51.4166 39.4356 50.8454 40.3692 51.522C40.4066 51.7251 40.44 51.9421 40.4747 52.1678C40.5441 52.6191 40.6188 53.1051 40.7416 53.5837C41.2752 55.6759 42.3169 58.6756 44.2685 58.1268C46.1418 57.6002 45.303 55.6079 44.6131 53.9693C44.4769 53.6459 44.3465 53.3362 44.2439 53.0543C43.9039 52.1123 43.5545 51.1745 43.2054 50.2375L43.2054 50.2374L43.2053 50.2373L43.2053 50.2372L43.2053 50.2371L43.2052 50.237L43.2052 50.2369L43.2052 50.2368L43.2051 50.2367L43.2051 50.2366L43.205 50.2365L43.205 50.2364L43.205 50.2363L43.2049 50.2362L43.2049 50.2361L43.2048 50.236L43.2048 50.2359L43.2048 50.2358L43.2047 50.2357L43.2047 50.2356L43.2047 50.2355L43.2046 50.2354L43.2046 50.2353L43.2045 50.2352L43.2045 50.2351L43.2045 50.235L43.2044 50.2349L43.2044 50.2348L43.2044 50.2347L43.2043 50.2346L43.2043 50.2345L43.2042 50.2344L43.2042 50.2343L43.2042 50.2342L43.2041 50.2341L43.2041 50.234L43.2041 50.234C41.4606 45.5546 39.7236 40.8924 39.1864 35.8026C38.1064 25.6043 36.071 15.5438 33.8314 5.53299C33.7653 5.23662 33.7403 4.91509 33.7146 4.58437L33.7146 4.58428C33.6252 3.43404 33.5271 2.17271 31.6593 1.47253C32.3333 6.73366 33.3735 11.8943 34.4195 17.0842L34.4195 17.0843L34.4195 17.0844L34.4195 17.0844L34.4195 17.0845L34.4195 17.0846L34.4196 17.0846L34.4196 17.0847L34.4196 17.0848L34.4196 17.0848L34.4196 17.0849L34.4196 17.085L34.4196 17.085L34.4196 17.0851L34.4196 17.0852L34.4196 17.0852L34.4197 17.0853L34.4197 17.0854L34.4197 17.0854L34.4197 17.0855L34.4197 17.0856L34.4197 17.0857L34.4197 17.0857L34.4197 17.0858L34.4197 17.0859L34.4198 17.0859L34.4198 17.086L34.4198 17.0861L34.4198 17.0861L34.4198 17.0862L34.4198 17.0863L34.4198 17.0863L34.4198 17.0864L34.4198 17.0865L34.4198 17.0865L34.4199 17.0866L34.4199 17.0866L34.4199 17.0867L34.4199 17.0867L34.4199 17.0867L34.4199 17.0868L34.4199 17.0868L34.4199 17.0868L34.4199 17.0869L34.4199 17.0869L34.4199 17.0869L34.4199 17.087L34.4199 17.087L34.4199 17.087L34.4199 17.0871L34.4199 17.0871L34.4199 17.0871L34.4199 17.0872L34.42 17.0872L34.42 17.0872L34.42 17.0873L34.42 17.0873L34.42 17.0873L34.42 17.0874L34.42 17.0874L34.42 17.0875L34.42 17.0875L34.42 17.0875L34.42 17.0876L34.42 17.0876L34.42 17.0876L34.42 17.0877L34.42 17.0877L34.42 17.0877L34.42 17.0878L34.42 17.0878C35.9443 24.6505 37.4811 32.2756 37.9165 40.3648C37.729 40.1593 37.5437 39.9558 37.3602 39.7542C34.3117 36.4057 31.7699 33.6138 28.3516 31.7845C23.4932 29.1874 19.1316 30.8992 18.1897 36.2769C17.3337 41.1347 17.9246 45.9358 20.6389 50.2261ZM50.4582 39.3666C53.5748 40.7023 56.6555 40.726 59.1985 38.1515C61.7491 35.5667 62.0105 29.8975 59.6174 26.8567L59.5777 26.8064C57.5524 24.2408 55.372 21.4786 51.4672 24.0012C47.8997 24.7064 46.787 27.3557 46.3147 30.5147C42.1472 38.581 47.97 51.0441 57.1803 51.7467C50.4617 48.7355 47.3751 44.18 47.2177 37.0458C47.7037 37.3995 48.1203 37.735 48.4996 38.0404L48.4997 38.0405L48.4998 38.0405C49.2134 38.6153 49.7951 39.0836 50.4582 39.3666ZM48.3847 30.4359C48.4009 30.3919 48.4168 30.3457 48.4328 30.2995C48.4487 30.2533 48.4646 30.2071 48.4809 30.1631C49.7542 26.881 53.0858 23.743 56.0617 27.339C57.8166 29.4645 59.4543 33.5242 57.6348 36.0704C54.3931 40.6317 46.8128 35.1918 48.3847 30.4359ZM7.14219 33.8983C6.85094 33.0212 6.51916 32.022 7.55635 31.7119C8.80241 31.3368 8.80731 32.131 8.8122 32.9229C8.81419 33.2445 8.81617 33.5658 8.90135 33.8082C9.86821 36.538 10.84 39.2659 11.8117 41.9935L11.8125 41.9956C13.7205 47.3513 15.628 52.7058 17.4967 58.0703C17.5863 58.324 17.7116 58.5771 17.8407 58.8378C18.3695 59.906 18.9609 61.1005 17.4126 62.9752C16.047 58.7022 14.4584 54.6299 12.893 50.6171C10.7943 45.2372 8.73724 39.9642 7.31525 34.4575C7.26998 34.2831 7.20709 34.0938 7.14219 33.8983L7.14219 33.8983ZM77.5851 18.1883C74.5038 17.5013 71.0367 18.5596 68.9852 20.9756C71.128 20.1117 73.3441 19.2458 75.6522 19.2778C79.4764 19.3438 81.3724 22.2675 82.8316 25.4058C82.9209 25.5972 83.0117 25.7893 83.1028 25.9822L83.1029 25.9824L83.103 25.9826L83.1031 25.9829L83.1032 25.9831L83.1033 25.9833L83.1034 25.9835L83.1038 25.9843L83.104 25.9849L83.1041 25.9849C83.7697 27.3939 84.4554 28.8454 84.7468 30.3718C84.7596 30.4384 84.7718 30.5015 84.7834 30.5613C84.987 31.6108 84.9956 31.6552 84.0178 32.0409C82.8699 32.4846 81.0782 32.5758 79.8369 32.5917C76.0861 32.6433 73.2746 34.0707 72.0607 37.8595C70.6323 40.7325 69.7868 43.8014 69.9985 46.9749C70.2737 51.1612 72.3387 53.9852 76.9057 54.2687C81.4769 54.5791 83.8122 52.3314 84.4307 47.9063C84.9128 44.451 84.7157 41.0726 83.6872 37.7391C83.7544 37.6134 83.7629 37.3347 83.7713 37.0569C83.7899 36.4478 83.8083 35.8424 84.4453 36.8579C85.7319 38.9094 86.6481 41.1841 87.5657 43.4624L87.5657 43.4625L87.5658 43.4625L87.5658 43.4626L87.5658 43.4627L87.5659 43.4628L87.5659 43.4629L87.5659 43.4629L87.566 43.463L87.566 43.4631L87.5661 43.4632L87.5661 43.4632L87.5661 43.4633L87.5662 43.4634L87.5662 43.4635L87.5662 43.4635L87.5663 43.4636L87.5663 43.4637L87.5663 43.4638L87.5664 43.4638L87.5664 43.4639L87.5664 43.464L87.5665 43.4641L87.5665 43.4641L87.5665 43.4642L87.5666 43.4643L87.5666 43.4644L87.5666 43.4644L87.5667 43.4645L87.5667 43.4646L87.5667 43.4647L87.5668 43.4647L87.5668 43.4648L87.5669 43.4649C87.9981 44.5357 88.4297 45.6074 88.9003 46.657C89.3356 47.6311 89.9663 48.6765 91.2484 48.1476C92.3049 47.7088 92.0904 46.5533 91.7588 45.7752C90.3384 42.4098 88.934 38.9683 88.0384 35.4209C87.9374 35.021 87.8378 34.6217 87.7383 34.223C86.8872 30.8107 86.0486 27.449 84.4613 24.2616C83.3137 21.9506 81.581 19.8494 79.2473 18.7526C78.7205 18.502 78.157 18.3122 77.5851 18.1883ZM82.2752 42.7561L82.2554 43.055C82.0596 46.0294 81.6873 51.6838 78.4365 52.7803C75.0462 53.9189 73.7997 50.0662 73.1857 47.5718C72.5878 45.1211 73.0649 42.5326 73.864 40.1802C73.9792 39.8356 74.0748 39.4756 74.171 39.1132L74.171 39.1131L74.1711 39.113L74.1711 39.1128L74.1711 39.1127L74.1711 39.1126C74.4545 38.0456 74.7434 36.9578 75.5521 36.1802C76.9568 34.8311 79.1812 34.0191 80.7734 35.5063C82.601 37.206 82.4422 40.3075 82.2912 42.5602C82.287 42.5931 82.2851 42.6256 82.2832 42.6582C82.2813 42.6907 82.2794 42.7232 82.2752 42.7561ZM7.43343 27.0783C7.33707 29.0278 6.73605 30.6311 4.7422 31.2049C3.03081 31.6984 1.75012 30.799 1.28638 29.2213C0.89463 27.8719 0.57143 26.3094 2.01217 25.1942C1.53046 23.2599 2.88189 22.3427 4.26437 22.7658C6.07193 23.317 7.55889 24.719 7.43343 27.0783ZM4.06678 27.1722C3.64869 26.2508 3.25898 25.5737 2.56323 25.3029C3.41268 25.375 4.06688 25.735 4.06678 27.1722ZM92.2393 12.8945C90.6096 13.7993 89.103 15.7445 89.114 17.7328C89.0283 22.0096 92.1858 23.3628 95.2053 24.6569L95.2063 24.6573C95.4422 24.7584 95.6772 24.8591 95.9098 24.9608C96.7967 25.347 97.707 25.682 98.6165 26.0168L98.6167 26.0169C101.059 26.9158 103.496 27.8128 105.463 29.6919C107.635 31.7717 109.228 33.8023 107.509 37.1253C106.26 39.5468 104.007 40.6488 101.342 40.6348C100.087 40.625 98.9217 40.4726 97.7704 39.9956C96.5984 39.5033 95.5087 39.2471 94.3311 39.9164C96.2666 42.1984 98.6868 42.4803 101.214 42.2575C105.314 41.9033 108.337 39.8723 109.75 35.9423C111.152 32.06 108.651 29.7544 106.005 27.5818C103.59 25.5962 100.729 24.566 97.8682 23.5357C97.2176 23.3014 96.5671 23.0672 95.9217 22.8216C93.426 21.8696 91.3679 20.5278 90.7312 17.7052C90.0211 14.5255 93.2902 13.6174 95.7742 13.3552C95.9933 13.3322 96.2463 13.3026 96.525 13.27C98.6445 13.0223 102.244 12.6015 103.65 13.5904C100.561 11.4122 95.559 11.0574 92.2393 12.8945ZM139.367 7.15737C144.885 5.56274 149.556 4.21327 154.208 2.79385C154.307 2.76035 154.281 2.30886 154.254 1.84694C154.24 1.61203 154.226 1.37443 154.228 1.18772L148.846 2.01535C147.564 3.0074 146.026 3.42885 144.396 3.8754C142.039 4.52099 139.492 5.21904 137.248 7.76966L139.367 7.15737ZM162.358 167.271L162.358 167.271C162.463 167.056 162.57 166.835 162.677 166.603C162.88 166.69 163.074 166.754 163.249 166.813L163.251 166.813L163.251 166.813L163.251 166.813C163.595 166.928 163.873 167.02 164.025 167.216C164.467 167.773 164.236 168.325 163.999 168.892C163.943 169.026 163.886 169.162 163.838 169.299C162.878 172.09 161.941 174.886 161.004 177.681L161.004 177.682L161.004 177.682L161.004 177.682L161.004 177.682L161.004 177.682L161.004 177.683L161.004 177.683L161.004 177.683L161.004 177.683L161.004 177.683L161.004 177.684L161.003 177.684L161.003 177.684L161.003 177.684L161.003 177.684L161.003 177.684L161.003 177.685L161.003 177.685L161.003 177.685L161.003 177.685L161.003 177.685L161.003 177.686L161.003 177.686L161.003 177.686L161.003 177.686L161.003 177.686L161.003 177.687L161.002 177.687L161.001 177.692C160.61 178.859 160.219 180.026 159.826 181.192C159.766 181.37 159.713 181.569 159.659 181.774C159.423 182.668 159.159 183.666 158.12 183.398C156.649 183.024 157.125 181.758 157.551 180.62L157.606 180.474C158.554 177.893 159.451 175.291 160.348 172.691L160.351 172.683L160.353 172.676L160.354 172.674L160.354 172.673L160.355 172.671C160.819 171.324 161.284 169.977 161.755 168.633C161.918 168.174 162.131 167.736 162.358 167.271ZM140.609 243.441C141.027 237.711 142.476 232.338 145.501 227.506C145.092 233.235 143.225 238.469 140.609 243.441ZM169.133 154.002C168.923 153.865 168.789 153.616 168.614 153.292L168.614 153.291C168.523 153.123 168.421 152.935 168.292 152.731C168.856 151.676 169.419 150.617 169.983 149.557L169.984 149.556C171.775 146.19 173.574 142.808 175.426 139.455C175.627 139.083 176.391 138.477 176.896 139.127C177.194 139.505 177.321 140.333 177.108 140.744C175.74 143.41 174.332 146.057 172.925 148.703L172.924 148.705L172.923 148.707C172.093 150.268 171.262 151.83 170.44 153.396C170.128 154.006 169.789 154.436 169.133 154.002ZM215.692 87.4291C215.106 87.0954 214.473 87.3494 214.131 87.8811C213.252 89.246 212.276 90.5516 211.299 91.8585C209.033 94.8883 206.762 97.9253 205.693 101.726C208.426 99.655 210.312 96.9292 212.195 94.2085C213.359 92.5269 214.522 90.8472 215.882 89.3253C216.409 88.7376 216.56 87.9221 215.692 87.4291ZM125.653 416.795L125.796 417.055C128.796 422.522 131.464 427.383 135.034 431.668C129.677 428.825 124.917 421.293 125.653 416.795ZM148.721 212.141C148.55 212.766 148.568 213.363 149.223 213.667C149.899 213.987 150.388 213.635 150.583 212.988C151.995 208.091 153.398 203.195 154.752 198.279C155.019 197.317 154.312 196.974 153.266 196.886C153.187 197.008 153.088 197.133 152.986 197.264C152.751 197.562 152.496 197.887 152.399 198.254C151.523 201.481 150.672 204.722 149.821 207.961L149.82 207.966L149.819 207.968L149.819 207.97L149.818 207.972L149.818 207.974L149.817 207.976L149.817 207.978L149.816 207.98L149.816 207.982L149.815 207.984L149.815 207.986L149.814 207.988L149.814 207.99L149.813 207.992L149.811 207.998L149.804 208.027L149.8 208.043L149.798 208.048C149.44 209.413 149.081 210.778 148.721 212.141ZM128.686 272.425C128.05 272.246 127.797 271.621 128.088 270.996C129.82 267.241 131.569 263.488 133.318 259.737C133.795 258.714 134.271 257.691 134.748 256.669C135.113 256.825 135.477 256.981 135.844 257.145C135.403 260.971 133.685 264.339 131.968 267.706L131.967 267.707C131.238 269.136 130.509 270.565 129.878 272.029C129.762 272.296 129.033 272.528 128.686 272.425ZM161.437 447.088L161.438 447.086C161.516 446.895 161.595 446.704 161.675 446.512L161.662 446.507C156.488 444.348 151.315 442.189 146.15 440.028C146.039 440.306 145.924 440.582 145.81 440.856L145.713 441.091C145.675 441.183 145.637 441.274 145.6 441.365C150.386 444.453 155.612 446.505 161.198 447.664C161.279 447.472 161.358 447.28 161.437 447.088ZM153.195 398.077C149.828 393.795 146.343 389.521 140.632 386.715C146.233 386.351 151.896 391.487 153.195 398.077ZM121.454 285.007C119.264 290.475 115.652 294.844 111.101 298.502C113.374 293.094 117.29 288.963 121.454 285.007ZM192.671 448.692C187.141 450.777 181.525 450.379 175.893 449.283C180.272 448.078 184.694 448.307 189.119 448.536C190.303 448.597 191.487 448.659 192.671 448.692ZM237.247 438.06C241.925 434.632 247.304 432.948 252.839 431.618C248.237 435.237 242.774 436.74 237.247 438.06ZM212.431 17.7014C212.231 17.898 211.413 17.8488 211.221 17.6204C209.255 15.3077 206.823 13.5594 204.388 11.809C202.533 10.4761 200.677 9.14197 199.024 7.55632C203.887 8.355 207.245 11.4243 210.606 14.4968C211.229 15.0664 211.852 15.6361 212.485 16.1915C213.144 16.7627 212.816 17.329 212.431 17.7014ZM310.603 409.386C311.249 409.158 311.522 408.535 311.101 407.955C310.901 407.673 310.235 407.416 309.949 407.533C307.867 408.456 305.699 409.168 303.532 409.881L303.531 409.881C300.528 410.868 297.526 411.854 294.756 413.398C294.902 413.864 295.057 414.338 295.212 414.802L295.214 414.801L295.217 414.801L295.219 414.8L295.221 414.799L295.224 414.798L295.226 414.797L295.228 414.796L295.231 414.796L295.233 414.795L295.236 414.794L295.238 414.793L295.24 414.792L295.243 414.791L295.245 414.791L295.247 414.79L295.25 414.789L295.252 414.788C300.371 412.999 305.489 411.211 310.603 409.386ZM265.858 426.41C270.45 422.664 276.026 421.005 281.662 419.429C276.75 422.478 271.587 425.087 265.858 426.41ZM197.485 113.178C195.102 118.409 191.58 122.764 187.253 126.498C189.834 121.412 192.695 116.531 197.485 113.178ZM74.8861 406.102C70.3303 401.819 67.6702 395.963 68.0984 390.36C68.8131 393.053 70.0715 395.492 71.3732 398.016C72.6646 400.519 73.9985 403.105 74.8861 406.102ZM222.502 32.4318L222.503 32.4326C224.166 36.5831 225.802 40.6642 227.297 44.8134C227.491 38.6479 224.885 33.6223 221.211 29.2031C221.642 30.2856 222.073 31.361 222.502 32.4318ZM341.11 400.484C341.135 400.605 341.16 400.726 341.185 400.847C341.209 400.964 341.233 401.081 341.257 401.199C341.305 401.438 341.353 401.677 341.403 401.913C338.659 402.464 335.914 403.018 333.168 403.572C330.432 404.124 327.695 404.676 324.961 405.225L324.96 405.221C324.871 404.821 324.782 404.422 324.702 404.021C329.926 401.808 335.512 401.106 341.11 400.484ZM83.9379 416.558C87.2668 421.491 91.9493 424.502 97.5603 426.182C94.0615 423.283 90.2856 420.777 86.4963 418.262C85.6432 417.696 84.7894 417.13 83.9379 416.558ZM122.604 405.296C120.286 398.19 123.394 390.001 129.148 388.001C124.435 392.937 123.255 398.388 122.604 405.296ZM185.547 1.8163C180.14 0.501272 174.733 -0.749369 169.041 1.24061C174.513 1.83634 179.976 2.43346 185.442 3.04858C185.461 2.84315 185.478 2.63806 185.494 2.43297C185.511 2.22753 185.528 2.02209 185.547 1.8163ZM77.3294 336.852L77.3292 336.853L77.329 336.853C75.9032 339.503 74.481 342.147 73.2985 344.915C73.169 345.212 72.6034 345.547 72.3092 345.491C71.6626 345.361 71.2922 344.809 71.6343 344.158C71.9229 343.596 72.208 343.032 72.4932 342.468C74.6462 338.208 76.8038 333.939 80.5215 330.658C79.5272 332.767 78.4273 334.811 77.3294 336.852ZM67.0913 365.426C67.2692 363.37 67.4469 361.315 67.7211 359.27C64.8747 364.425 64.9131 369.946 65.783 375.543C66.5057 372.194 66.7986 368.809 67.0913 365.426ZM208.34 445.389C212.323 444.394 216.326 443.45 220.327 442.508L220.405 442.489C221.289 442.281 222.172 442.073 223.055 441.864C220.245 444.487 216.83 445.291 213.423 446.094C211.828 446.469 210.235 446.845 208.706 447.406C208.226 447.581 207.347 447.32 207.357 446.6C207.356 446.176 207.914 445.492 208.34 445.389ZM152.143 411.901C150.333 417.689 146.736 421.918 141.318 424.547C145.431 420.736 148.912 416.415 152.143 411.901ZM224.006 75.6571C225.944 71.4659 226.853 67.5009 227.733 63.6612L227.733 63.6602L227.733 63.66L227.733 63.6597C228.065 62.2119 228.392 60.7819 228.77 59.3642C230.065 65.3285 228.059 72.5926 224.006 75.6571ZM111.579 430.595C118.057 432.943 124.495 432.57 128.12 429.903C124.851 430.593 121.556 430.538 118.248 430.482C116.03 430.445 113.806 430.407 111.579 430.595ZM95.9878 313.152C94.457 315.958 92.7288 318.619 88.5632 320.347C90.5164 316.454 92.7423 314.333 95.9878 313.152ZM125.296 13.4402C123.131 15.717 120.886 17.8955 116.491 19.032C119.447 15.6662 122.083 14.1184 125.296 13.4402Z" fill="#2E6FA2"/>
</svg>
