<svg width="491" height="476" viewBox="0 0 491 476" fill="none" xmlns="http://www.w3.org/2000/svg">
<path fill-rule="evenodd" clip-rule="evenodd" d="M224.05 8.77793C272.622 -18.4739 331.223 30.2931 379.324 58.3969C424.548 84.8194 483.096 112.362 490.205 164.282C497.49 217.48 431.338 250.536 412.518 300.81C399.664 335.15 418.834 376.331 399.23 407.309C377.506 441.635 342.534 475.819 301.932 475.552C261.463 475.287 245.118 416.335 205.975 406.042C147.677 390.711 74.5044 444.183 29.5959 403.936C-11.5396 367.071 -5.26423 289.613 23.3171 242.347C51.0489 196.485 131.325 218.583 166.252 177.944C206.052 131.633 170.81 38.6488 224.05 8.77793Z" fill="url(#paint0_linear_8_7890)"/>
<defs>
<linearGradient id="paint0_linear_8_7890" x1="267.794" y1="-2.27393" x2="232.466" y2="557.675" gradientUnits="userSpaceOnUse">
<stop stop-color="#EDEEEE" stop-opacity="0.4"/>
<stop offset="1" stop-color="white" stop-opacity="0"/>
</linearGradient>
</defs>
</svg>
