<svg width="614" height="118" viewBox="0 0 614 118" fill="none" xmlns="http://www.w3.org/2000/svg">
<g clip-path="url(#clip0_1_1962)">
<path fill-rule="evenodd" clip-rule="evenodd" d="M69.3483 117.99V98.0776C58.4605 98.0776 47.7846 98.8781 36.6567 90.649C26.9886 83.4968 20.763 71.9369 20.763 58.9952C20.763 46.53 26.5366 35.3466 35.6018 28.1515C45.4347 20.3417 54.5801 19.9129 64.9828 19.9129H133.625V0H58.5924C25.4864 0 0 24.0489 0 58.7665C0 76.3207 7.94449 92.4406 20.4852 103.686C37.3725 118.829 51.4061 117.99 69.3483 117.99Z" fill="white"/>
<path fill-rule="evenodd" clip-rule="evenodd" d="M64.9781 32.6925H56.8641C49.8662 32.6925 44.1256 35.2942 39.6424 40.4928C35.1592 45.6914 32.9176 51.8858 32.9176 59.081C32.9176 66.2713 35.1027 72.3562 39.4776 77.3356C44.0691 82.6486 49.8662 85.3027 56.8594 85.3027H69.3389V65.385H56.6945C53.9585 65.385 52.5928 63.2837 52.5928 59.081C52.5928 54.7639 53.9585 52.6054 56.6945 52.6054H64.9734H73.4218V59.2859V65.385V85.3027V98.0776V117.99C85.5622 117.99 97.6979 117.99 109.834 117.99C116.832 117.99 122.629 115.336 127.22 110.052C131.482 104.963 133.615 98.8495 133.615 91.6877C133.615 84.526 131.482 78.3839 127.22 73.3235C122.6 68.0391 116.803 65.385 109.782 65.385H97.1987V85.3027H109.843C112.579 85.3027 113.945 87.4326 113.945 91.6877C113.945 92.4263 113.902 93.0982 113.822 93.7081C113.431 96.6243 112.103 98.0776 109.843 98.0776H97.1987H93.1158V85.3027V65.385V59.2859V52.6054H112.141H133.625V32.6925H112.141H64.9781Z" fill="white"/>
<path d="M199.107 35.2989L198.471 37.2811C197.251 41.0884 194.915 44.3619 191.723 46.7492C188.459 49.1841 184.588 50.4754 180.519 50.4754C175.961 50.4754 171.562 48.8076 168.129 45.7866C164.729 42.7895 162.497 38.6678 161.847 34.1839C161.711 33.2643 161.645 32.3256 161.645 31.3869C161.645 30.4815 161.706 29.5762 161.833 28.6994C162.459 24.1822 164.682 20.0367 168.087 17.0157C171.525 13.9709 175.942 12.2888 180.515 12.2888C184.687 12.2888 188.643 13.6373 191.953 16.1961C195.156 18.6691 197.529 22.1762 198.645 26.0739L199.196 28.0085H190.922L190.536 27.0841C188.822 23.0053 184.889 20.3702 180.519 20.3702C175.358 20.3702 170.87 24.0869 169.848 29.2045C169.707 29.9145 169.636 30.6483 169.636 31.3821C169.636 32.1397 169.716 32.9069 169.867 33.6455C170.917 38.7106 175.4 42.3892 180.515 42.3892C184.663 42.3892 188.511 39.94 190.319 36.1518L190.729 35.2989H199.107Z" fill="white"/>
<path d="M237.28 12.4175V20.5037H203.665V13.9327V12.4175H237.28ZM211.657 42.394H237.28V50.4802H203.665V43.9092V42.394V26.0834L211.657 26.1359H233.927V34.222H211.657V42.394Z" fill="white"/>
<path d="M273.437 12.3508V50.4802H271.525L265.884 44.7717L256.413 35.1893L250.941 29.6524L242.95 21.571V16.7536V13.1227V12.1459H244.932L265.441 32.8974V12.3508H273.437ZM242.954 29.5428L250.946 37.6242V50.4277H242.954V29.5428Z" fill="white"/>
<path d="M312.99 12.4222V20.5084H299.776H291.784H279.107V12.4222H312.99ZM291.789 50.4801V26.1406H299.781V50.4754H291.789V50.4801Z" fill="white"/>
<path d="M354.436 50.4801H345.079L344.641 49.7511L334.964 33.6931C334.719 33.7455 334.474 33.7932 334.234 33.836C334.149 33.8503 334.055 33.8694 333.951 33.8837C333.904 33.8932 333.857 33.898 333.814 33.9075H333.8C333.683 33.9266 333.56 33.9456 333.438 33.9599C333.386 33.9695 333.329 33.9742 333.273 33.9838C333.146 33.9981 333.019 34.0123 332.896 34.0266C332.75 34.0409 332.618 34.0552 332.496 34.0648L332.435 34.0743H332.355C332.232 34.0838 332.11 34.0886 331.987 34.0981C331.959 34.0981 331.921 34.1029 331.874 34.1029C331.775 34.1076 331.681 34.1124 331.582 34.1172H331.573L331.483 34.1219H331.389H331.375H331.366C331.243 34.1219 331.116 34.1267 330.994 34.1267H326.058V50.4897H318.071V26.0453H330.998C332.458 26.0453 333.866 25.7594 335.19 25.2019C335.227 25.1876 335.265 25.1685 335.303 25.1542C336.532 24.6158 337.643 23.8534 338.608 22.8909C339.343 22.1571 339.969 21.3232 340.469 20.4179H335.185H318.067V12.3126H349.675L349.774 13.7231C349.807 14.171 349.821 14.6236 349.821 15.0668C349.821 16.4677 349.67 17.8638 349.374 19.2123C348.592 22.7861 346.807 26.0453 344.217 28.6279C343.968 28.8757 343.732 29.0996 343.497 29.3093C343.417 29.3808 343.332 29.457 343.252 29.5285C343.238 29.538 343.224 29.5523 343.209 29.5666C343.106 29.6524 343.002 29.7429 342.894 29.8287C342.814 29.8954 342.734 29.9621 342.654 30.0241C342.611 30.0574 342.564 30.0955 342.522 30.1289L342.479 30.1622C342.418 30.2099 342.352 30.2623 342.291 30.31L353.061 48.1739L354.436 50.4801Z" fill="white"/>
<path d="M369.317 25.6737L374.342 34.8034L366.2 49.6939L365.771 50.4754H355.75L356.979 48.2263L369.317 25.6737ZM399.292 50.4801H389.27L388.842 49.6987L381.34 35.9803L377.667 29.2617L377.521 28.9948L372.496 19.8651L372.515 19.8365L372.915 19.1027L376.188 13.1275L376.574 12.2888H378.496L378.868 13.1275L382.141 19.1075L398.072 48.2358L399.292 50.4801Z" fill="white"/>
<path d="M433.796 42.394V50.4802H403.86V12.1411H411.846V42.394H433.796Z" fill="white"/>
<path d="M493.712 12.4222V20.5084H480.498H472.506H459.829V12.4222H493.712ZM472.511 50.4801V26.1406H480.503V50.4754H472.511V50.4801Z" fill="white"/>
<path d="M533.015 12.4175V20.5037H499.401V13.9327V12.4175H533.015ZM507.392 42.394H533.011V50.4802H499.396V43.9092V42.394V26.0834L507.388 26.1359H529.658V34.222H507.388V42.394H507.392Z" fill="white"/>
<path d="M574.895 35.2989L574.259 37.2811C573.039 41.0884 570.703 44.3619 567.51 46.7492C564.247 49.1841 560.376 50.4754 556.307 50.4754C551.749 50.4754 547.35 48.8076 543.917 45.7866C540.517 42.7895 538.285 38.6678 537.635 34.1839C537.498 33.2643 537.432 32.3256 537.432 31.3869C537.432 30.4815 537.494 29.5762 537.621 28.6994C538.247 24.1822 540.47 20.0367 543.875 17.0157C547.313 13.9709 551.73 12.2888 556.302 12.2888C560.475 12.2888 564.431 13.6373 567.741 16.1961C570.943 18.6691 573.322 22.1762 574.433 26.0739L574.984 28.0085H566.71L566.324 27.0841C564.61 23.0053 560.677 20.3702 556.307 20.3702C551.146 20.3702 546.658 24.0869 545.636 29.2045C545.495 29.9145 545.424 30.6483 545.424 31.3821C545.424 32.1397 545.504 32.9069 545.655 33.6455C546.705 38.7106 551.188 42.3892 556.307 42.3892C560.456 42.3892 564.303 39.94 566.112 36.1518L566.521 35.2989H574.895Z" fill="white"/>
<path d="M614 12.4843V50.4754H606.013V34.2888H588.702V50.4754H580.715V12.4843H588.702V26.2026H606.013V12.4843H614Z" fill="white"/>
<path d="M164.889 73.3616C164.889 77.1784 167.955 80.2804 171.727 80.2804H183.877C187.395 80.2804 190.668 82.2054 192.42 85.2979C193.267 86.7894 193.71 88.4952 193.71 90.2344C193.71 91.9736 193.262 93.6748 192.42 95.1662C190.668 98.2587 187.395 100.184 183.872 100.184H161.885V97.1532H183.872C187.644 97.1532 190.71 94.0512 190.71 90.2344C190.71 86.4177 187.644 83.3157 183.872 83.3157H171.722C168.205 83.3157 164.932 81.3906 163.18 78.2982C162.332 76.8067 161.89 75.1009 161.89 73.3616C161.89 71.6224 162.337 69.9213 163.18 68.4251C164.932 65.3326 168.205 63.4076 171.727 63.4076H194.021V66.4381H171.727C167.955 66.4429 164.889 69.5497 164.889 73.3616Z" fill="white"/>
<path d="M233.103 81.6957C233.103 91.8927 224.904 100.189 214.826 100.189C204.748 100.189 196.545 91.8927 196.545 81.6957C196.545 71.4986 204.744 63.198 214.826 63.198C224.904 63.198 233.103 71.4938 233.103 81.6957ZM229.919 81.6957C229.919 73.2712 223.147 66.4191 214.826 66.4191C206.5 66.4191 199.728 73.2712 199.728 81.6957C199.728 90.1154 206.5 96.9674 214.826 96.9674C223.147 96.9674 229.919 90.1154 229.919 81.6957Z" fill="white"/>
<path d="M266.392 97.1532V100.184H238.707V63.1169H241.702V97.1484H266.392V97.1532Z" fill="white"/>
<path d="M298.02 63.4124V87.1563C298.02 89.858 297.049 92.3977 295.293 94.3133C294.568 95.0995 293.772 95.8285 292.919 96.4766C289.745 98.9019 285.959 100.184 281.97 100.184C277.972 100.184 274.181 98.8972 271.003 96.4623C270.15 95.8095 269.345 95.0757 268.62 94.2799C266.873 92.3644 265.907 89.8294 265.907 87.1372V63.4124H268.902V83.8494C268.902 90.9682 274.553 96.934 281.5 97.1484C281.655 97.1532 281.815 97.1579 281.97 97.1579C282.121 97.1579 282.272 97.158 282.418 97.1532C289.369 96.9483 295.02 90.9825 295.02 83.8541V63.4171H298.02V63.4124Z" fill="white"/>
<path d="M301.561 66.4667V63.4362H333.687V66.4667H301.561ZM315.825 100.188V71.9607H318.82V100.188H315.825Z" fill="white"/>
<path d="M339.263 100.189V63.3505H342.258V100.189H339.263Z" fill="white"/>
<path d="M384.382 81.6957C384.382 91.8927 376.184 100.189 366.106 100.189C356.028 100.189 347.824 91.8927 347.824 81.6957C347.824 71.4986 356.023 63.198 366.106 63.198C376.188 63.198 384.382 71.4938 384.382 81.6957ZM381.199 81.6957C381.199 73.2712 374.427 66.4191 366.106 66.4191C357.78 66.4191 351.013 73.2712 351.013 81.6957C351.013 90.1154 357.785 96.9674 366.106 96.9674C374.427 96.9674 381.199 90.1154 381.199 81.6957Z" fill="white"/>
<path d="M417.168 63.4124V98.13L413.787 94.7087L394.102 74.7911L391.865 72.5278L388.87 69.4972V65.2088L414.173 90.811V63.4124H417.168ZM388.87 77.2689L391.865 80.2994V100.184H388.87V77.2689Z" fill="white"/>
<path d="M424.703 73.3616C424.703 77.1784 427.768 80.2804 431.54 80.2804H443.69C447.208 80.2804 450.481 82.2054 452.233 85.2979C453.081 86.7894 453.523 88.4952 453.523 90.2344C453.523 91.9736 453.076 93.6748 452.233 95.1662C450.481 98.2587 447.208 100.184 443.69 100.184H421.703V97.1532H443.69C447.462 97.1532 450.528 94.0512 450.528 90.2344C450.528 86.4177 447.458 83.3157 443.69 83.3157H431.54C428.023 83.3157 424.75 81.3906 422.998 78.2982C422.15 76.8067 421.708 75.1009 421.708 73.3616C421.708 71.6224 422.155 69.9213 422.998 68.4251C424.75 65.3326 428.023 63.4076 431.54 63.4076H453.834V66.4381H431.54C427.768 66.4429 424.703 69.5497 424.703 73.3616Z" fill="white"/>
</g>
<defs>
<clipPath id="clip0_1_1962">
<rect width="614" height="118" fill="white"/>
</clipPath>
</defs>
</svg>
