<svg width="16" height="16" viewBox="0 0 16 16" fill="none" xmlns="http://www.w3.org/2000/svg">
<path d="M11.7712 11.1046C11.2495 11.6263 10.2519 12.6239 9.41381 13.462C8.63276 14.243 7.36726 14.2431 6.58621 13.462C5.76382 12.6396 4.78308 11.6589 4.22875 11.1046C2.14596 9.02177 2.14596 5.64489 4.22875 3.5621C6.31155 1.4793 9.68843 1.4793 11.7712 3.5621C13.854 5.64489 13.854 9.02177 11.7712 11.1046Z" stroke="#C7C9CB" stroke-width="1.5" stroke-linecap="round" stroke-linejoin="round"/>
<path d="M9.99999 7.33333C9.99999 8.4379 9.10456 9.33333 7.99999 9.33333C6.89542 9.33333 5.99999 8.4379 5.99999 7.33333C5.99999 6.22876 6.89542 5.33333 7.99999 5.33333C9.10456 5.33333 9.99999 6.22876 9.99999 7.33333Z" stroke="#C7C9CB" stroke-width="1.5" stroke-linecap="round" stroke-linejoin="round"/>
</svg>
